<?xml version="1.0" encoding="utf-8"?>
<!-- Generator: Adobe Illustrator 19.0.0, SVG Export Plug-In . SVG Version: 6.00 Build 0)  -->
<svg xmlns="http://www.w3.org/2000/svg" xmlns:xlink="http://www.w3.org/1999/xlink" version="1.1" id="Layer_1" x="0px" y="0px" viewBox="0 0 336 235.2" style="enable-background:new 0 0 336 235.2;" xml:space="preserve">
<style type="text/css">
	.st0{fill:#5BD4E3;}
	.st1{fill:#54C3D1;}
	.st2{fill:#5A5A5A;}
	.st3{fill:#FFFEFA;}
	.st4{fill-rule:evenodd;clip-rule:evenodd;fill:#464646;}
	.st5{fill-rule:evenodd;clip-rule:evenodd;fill:#F5F5F5;}
	.st6{fill-rule:evenodd;clip-rule:evenodd;fill:#DBDBDB;}
	.st7{fill-rule:evenodd;clip-rule:evenodd;fill:#FFFFFF;}
	.st8{fill-rule:evenodd;clip-rule:evenodd;fill:#ED7261;}
	.st9{opacity:0.5;}
	.st10{fill:#FFFFFF;}
	.st11{fill:#FFDB6A;}
	.st12{fill:#ED7261;}
	.st13{fill:#464646;}
</style>
<g>
	<g>
		<g>
			
		</g>
	</g>
</g>
<g>
	<path class="st1" d="M145.6,61.4h2.4l-2.4,16.1h-2.2l-1.3-8.8l-1.2,8.8h-2.2l-2.5-16.1h2.4l1.2,8.6l1.1-8.6h2.4l1.2,8.6L145.6,61.4   z"/>
	<path class="st1" d="M149.9,77.5V61.4h6.5v2.4h-4.2v4.4h3.1v2.4h-3.1v4.4h4.2v2.4H149.9z"/>
	<path class="st1" d="M158,77.5V61.4h3.4c0.9,0,1.7,0.3,2.5,0.8c0.6,0.4,1.1,1.1,1.3,2c0.1,0.5,0.2,1,0.2,1.7c0,1.1-0.3,1.9-0.8,2.6   c-0.2,0.3-0.5,0.5-0.8,0.6c0.5,0.2,0.9,0.6,1.3,1.2c0.2,0.4,0.4,0.9,0.5,1.6c0.1,0.3,0.1,0.7,0.1,1.1c0,1-0.2,1.9-0.5,2.6   c-0.3,0.6-0.7,1-1.2,1.3c-0.6,0.4-1.2,0.6-1.7,0.6H158z M160.5,68h1c0.7,0,1.2-0.4,1.4-1.1c0.1-0.3,0.1-0.6,0.1-1   c0-0.7-0.2-1.2-0.5-1.5c-0.3-0.3-0.7-0.5-1.1-0.5h-1V68z M160.5,75.1h1c0.8,0,1.3-0.4,1.6-1.3c0.1-0.3,0.2-0.6,0.2-1   c0-0.9-0.2-1.6-0.5-2c-0.3-0.4-0.7-0.6-1.3-0.6h-1V75.1z"/>
	<path class="st1" d="M172.8,77.5h-2.3V61.4h3.3l2.1,11.5l2.1-11.5h3.2v16.1h-2.3V67.4l-2,10.1H175l-2.2-10.1V77.5z"/>
	<path class="st1" d="M183.2,77.5V61.4h6.5v2.4h-4.2v4.4h3.1v2.4h-3.1v4.4h4.2v2.4H183.2z"/>
	<path class="st1" d="M198.5,73.6c0,1.1-0.4,2-1.1,2.7c-0.7,0.8-1.6,1.1-2.6,1.1h-3.6V61.4h3.6c1,0,1.9,0.4,2.6,1.1   c0.7,0.8,1,1.7,1,2.7V73.6z M193.6,75.1h1.4c0.4,0,0.7-0.1,0.9-0.4c0.3-0.3,0.4-0.6,0.4-1v-8.4c0-0.4-0.1-0.7-0.4-1   c-0.3-0.3-0.6-0.4-0.9-0.4h-1.4V75.1z"/>
	<path class="st1" d="M202.8,77.5h-2.3V61.4h2.3V77.5z"/>
	<path class="st1" d="M207.7,73.8l-0.6,3.7h-2.4l2.6-16.1h3.2l2.6,16.1h-2.4l-0.5-3.7H207.7z M208.9,65.1l-0.8,6.3h1.7L208.9,65.1z"/>
</g>
<g>
	<g>
		<path class="st1" d="M252,72.9h-23.9V56.3H121.3v16.6H96.7c-2,0-3.7,1.6-3.7,3.7v94.9v11c0,2,1.6,3.7,3.7,3.7h51.2v6.8h-4.3    c-2.1,0-3.9,1.7-3.9,3.9c0,2.1,1.7,3.9,3.9,3.9h61.7c2.1,0,3.9-1.7,3.9-3.9c0-2.1-1.7-3.9-3.9-3.9h-4.3v-6.8H252    c2,0,3.7-1.6,3.7-3.7v-11V76.5C255.7,74.5,254.1,72.9,252,72.9z"/>
	</g>
	<g>
		<path class="st1" d="M299.7,160.6c-1.2,0-2.1,0.9-2.1,2.1v19h-19c-1.2,0-2.1,0.9-2.1,2.1c0,11.8,10,21.3,22.2,21.3    c12.3,0,22.2-10,22.2-22.2C321,170.8,311.3,160.6,299.7,160.6z"/>
	</g>
	<g>
		<path class="st1" d="M292.6,174.9v-15.6c0-1-0.8-1.8-1.8-1.8c-9.6,0-17.4,7.8-17.4,17.4c0,1,0.8,1.8,1.8,1.8h15.6    C291.8,176.7,292.6,175.9,292.6,174.9z"/>
	</g>
	<g>
		<path class="st1" d="M71.8,58.9H28.3c-1.1,0-2.1,0.9-2.1,2.1v26.5c0,1.1,0.9,2,2.1,2h24.4v8.8c0,0.9,0.7,1.6,1.5,1.9    c0.2,0.1,0.5,0.1,0.8,0.1c0.6,0,1.2-0.3,1.6-0.8l8.6-10.1h6.7c1.1,0,2.1-0.9,2.1-2V61C73.9,59.8,72.9,58.9,71.8,58.9z"/>
	</g>
	<g>
		<path class="st1" d="M275,83h43.5c1.1,0,2.1-0.9,2.1-2.1V57.1c0,0,0,0,0,0c0-0.1,0-0.2,0-0.2c0-0.1,0-0.1,0-0.2    c0-0.1,0-0.1-0.1-0.2c0-0.1,0-0.1-0.1-0.2c0-0.1-0.1-0.1-0.1-0.2c0-0.1-0.1-0.1-0.1-0.2c0,0,0,0,0,0c0,0-0.1-0.1-0.1-0.1    c0-0.1-0.1-0.1-0.1-0.2c0,0-0.1-0.1-0.2-0.1c-0.1,0-0.1-0.1-0.2-0.1c-0.1,0-0.1-0.1-0.2-0.1c-0.1,0-0.1-0.1-0.2-0.1    c-0.1,0-0.1,0-0.2-0.1c-0.1,0-0.1,0-0.2,0c-0.1,0-0.2,0-0.2,0c0,0-0.1,0-0.1,0H275c0,0-0.1,0-0.1,0c-0.1,0-0.2,0-0.2,0    c-0.1,0-0.1,0-0.2,0c-0.1,0-0.1,0-0.2,0.1c-0.1,0-0.1,0.1-0.2,0.1c-0.1,0-0.1,0.1-0.2,0.1c-0.1,0-0.1,0.1-0.2,0.1    c-0.1,0-0.1,0.1-0.2,0.1c-0.1,0.1-0.1,0.1-0.2,0.2c0,0-0.1,0.1-0.1,0.1c0,0,0,0,0,0c0,0.1-0.1,0.1-0.1,0.2c0,0.1-0.1,0.1-0.1,0.2    c0,0.1,0,0.1-0.1,0.2c0,0.1,0,0.1-0.1,0.2c0,0.1,0,0.1,0,0.2c0,0.1,0,0.2,0,0.2c0,0,0,0,0,0v23.8C272.9,82.1,273.8,83,275,83z"/>
	</g>
	<g>
		<path class="st1" d="M319,102.7h-43.5c-1.1,0-2.1,0.9-2.1,2.1V139c0,1.1,0.9,2.1,2.1,2.1H319c1.1,0,2.1-0.9,2.1-2.1v-34.2    C321.1,103.7,320.2,102.7,319,102.7z"/>
	</g>
	<g>
		<path class="st1" d="M27.1,144.6h43.2c1.1,0,2.1-0.9,2.1-2.1v-24.3c0-1.1-0.9-2.1-2.1-2.1H44.5l-2.3-3.7c-0.4-0.6-1-1-1.8-1H27.1    c-1.1,0-2.1,0.9-2.1,2.1v29C25.1,143.7,26,144.6,27.1,144.6z"/>
	</g>
	<g>
		<path class="st1" d="M70.5,166.4H27c-1.1,0-2.1,0.9-2.1,2.1v32.1c0,1.1,0.9,2.1,2.1,2.1h43.5c1.1,0,2.1-0.9,2.1-2.1v-32.1    C72.6,167.3,71.7,166.4,70.5,166.4z"/>
	</g>
</g>
<g>
	<path class="st2" d="M86.8,34.1h0.4v2.7h1.3v0.3h-1.7V34.1z"/>
	<path class="st2" d="M90.8,36c0,0.8-0.6,1.1-1.1,1.1c-0.6,0-1-0.4-1-1.1c0-0.7,0.5-1.1,1.1-1.1C90.4,34.9,90.8,35.3,90.8,36z    M89.1,36c0,0.5,0.3,0.8,0.7,0.8c0.4,0,0.7-0.4,0.7-0.8c0-0.4-0.2-0.8-0.6-0.8C89.3,35.2,89.1,35.6,89.1,36z"/>
	<path class="st2" d="M91.3,35.6c0-0.3,0-0.5,0-0.7h0.3l0,0.4h0c0.1-0.3,0.3-0.5,0.6-0.5c0,0,0.1,0,0.1,0v0.4c0,0-0.1,0-0.1,0   c-0.3,0-0.5,0.2-0.5,0.5c0,0.1,0,0.1,0,0.2v1.1h-0.4V35.6z"/>
	<path class="st2" d="M92.9,36.1c0,0.5,0.3,0.7,0.7,0.7c0.3,0,0.4,0,0.6-0.1l0.1,0.3c-0.1,0.1-0.4,0.1-0.7,0.1   c-0.7,0-1.1-0.4-1.1-1.1c0-0.6,0.4-1.2,1-1.2c0.7,0,0.9,0.6,0.9,1c0,0.1,0,0.1,0,0.2H92.9z M94,35.8c0-0.2-0.1-0.6-0.5-0.6   c-0.4,0-0.6,0.4-0.6,0.6H94z"/>
	<path class="st2" d="M94.9,35.5c0-0.2,0-0.4,0-0.6h0.3l0,0.3h0c0.1-0.2,0.3-0.4,0.7-0.4c0.3,0,0.5,0.2,0.6,0.4h0   c0.1-0.1,0.2-0.2,0.2-0.3c0.1-0.1,0.3-0.2,0.5-0.2c0.3,0,0.7,0.2,0.7,0.9v1.3h-0.4v-1.2c0-0.4-0.2-0.7-0.5-0.7   c-0.2,0-0.4,0.2-0.5,0.4c0,0.1,0,0.1,0,0.2v1.3h-0.4v-1.3c0-0.3-0.2-0.6-0.4-0.6c-0.2,0-0.4,0.2-0.5,0.4c0,0.1,0,0.1,0,0.2v1.3   h-0.4V35.5z"/>
	<path class="st2" d="M101.2,34.3c0,0.1-0.1,0.2-0.2,0.2c-0.1,0-0.2-0.1-0.2-0.2c0-0.1,0.1-0.2,0.2-0.2   C101.1,34.1,101.2,34.2,101.2,34.3z M100.7,37.1v-2.1h0.4v2.1H100.7z"/>
	<path class="st2" d="M101.8,35.6c0-0.3,0-0.5,0-0.7h0.4l0,0.4h0c0.2-0.3,0.4-0.4,0.8-0.4c0.5,0,0.9,0.4,0.9,1.1   c0,0.8-0.5,1.2-1,1.2c-0.3,0-0.5-0.1-0.7-0.3h0v1.2h-0.4V35.6z M102.1,36.2c0,0.1,0,0.1,0,0.2c0.1,0.3,0.3,0.5,0.6,0.5   c0.4,0,0.7-0.3,0.7-0.8c0-0.4-0.2-0.8-0.6-0.8c-0.3,0-0.5,0.2-0.6,0.5c0,0,0,0.1,0,0.2V36.2z"/>
	<path class="st2" d="M104.2,36.7c0.1,0.1,0.3,0.2,0.5,0.2c0.3,0,0.4-0.1,0.4-0.3c0-0.2-0.1-0.3-0.4-0.4c-0.4-0.1-0.6-0.4-0.6-0.6   c0-0.3,0.3-0.6,0.7-0.6c0.2,0,0.4,0.1,0.5,0.1l-0.1,0.3c-0.1-0.1-0.2-0.1-0.4-0.1c-0.2,0-0.4,0.1-0.4,0.3c0,0.2,0.1,0.3,0.4,0.4   c0.4,0.1,0.6,0.3,0.6,0.6c0,0.4-0.3,0.6-0.8,0.6c-0.2,0-0.5-0.1-0.6-0.1L104.2,36.7z"/>
	<path class="st2" d="M107.8,36.5c0,0.2,0,0.4,0,0.6h-0.3l0-0.4h0c-0.1,0.2-0.3,0.4-0.7,0.4c-0.3,0-0.7-0.2-0.7-0.9v-1.3h0.4v1.2   c0,0.4,0.1,0.7,0.5,0.7c0.3,0,0.4-0.2,0.5-0.4c0-0.1,0-0.1,0-0.2v-1.3h0.4V36.5z"/>
	<path class="st2" d="M108.5,35.5c0-0.2,0-0.4,0-0.6h0.3l0,0.3h0c0.1-0.2,0.3-0.4,0.7-0.4c0.3,0,0.5,0.2,0.6,0.4h0   c0.1-0.1,0.2-0.2,0.2-0.3c0.1-0.1,0.3-0.2,0.5-0.2c0.3,0,0.7,0.2,0.7,0.9v1.3h-0.4v-1.2c0-0.4-0.2-0.7-0.5-0.7   c-0.2,0-0.4,0.2-0.5,0.4c0,0.1,0,0.1,0,0.2v1.3h-0.4v-1.3c0-0.3-0.2-0.6-0.4-0.6c-0.2,0-0.4,0.2-0.5,0.4c0,0.1,0,0.1,0,0.2v1.3   h-0.4V35.5z"/>
	<path class="st2" d="M116.2,33.9v2.6c0,0.2,0,0.4,0,0.6h-0.4l0-0.4h0c-0.1,0.2-0.4,0.4-0.7,0.4c-0.5,0-0.9-0.4-0.9-1.1   c0-0.7,0.4-1.2,1-1.2c0.3,0,0.6,0.2,0.6,0.3h0v-1.3H116.2z M115.8,35.8c0,0,0-0.1,0-0.2c-0.1-0.2-0.3-0.5-0.6-0.5   c-0.4,0-0.6,0.4-0.6,0.8c0,0.4,0.2,0.8,0.6,0.8c0.3,0,0.5-0.2,0.6-0.5c0-0.1,0-0.1,0-0.2V35.8z"/>
	<path class="st2" d="M118.8,36c0,0.8-0.6,1.1-1.1,1.1c-0.6,0-1-0.4-1-1.1c0-0.7,0.5-1.1,1.1-1.1C118.3,34.9,118.8,35.3,118.8,36z    M117.1,36c0,0.5,0.3,0.8,0.7,0.8c0.4,0,0.7-0.4,0.7-0.8c0-0.4-0.2-0.8-0.6-0.8S117.1,35.6,117.1,36z"/>
	<path class="st2" d="M119.3,33.9h0.4v3.2h-0.4V33.9z"/>
	<path class="st2" d="M122.2,36c0,0.8-0.6,1.1-1.1,1.1c-0.6,0-1-0.4-1-1.1c0-0.7,0.5-1.1,1.1-1.1C121.8,34.9,122.2,35.3,122.2,36z    M120.5,36c0,0.5,0.3,0.8,0.7,0.8c0.4,0,0.7-0.4,0.7-0.8c0-0.4-0.2-0.8-0.6-0.8S120.5,35.6,120.5,36z"/>
	<path class="st2" d="M122.7,35.6c0-0.3,0-0.5,0-0.7h0.3l0,0.4h0c0.1-0.3,0.3-0.5,0.6-0.5c0,0,0.1,0,0.1,0v0.4c0,0-0.1,0-0.1,0   c-0.3,0-0.5,0.2-0.5,0.5c0,0.1,0,0.1,0,0.2v1.1h-0.4V35.6z"/>
	<path class="st2" d="M126.3,36.7c0.1,0.1,0.3,0.2,0.5,0.2c0.3,0,0.4-0.1,0.4-0.3c0-0.2-0.1-0.3-0.4-0.4c-0.4-0.1-0.6-0.4-0.6-0.6   c0-0.3,0.3-0.6,0.7-0.6c0.2,0,0.4,0.1,0.5,0.1l-0.1,0.3c-0.1-0.1-0.2-0.1-0.4-0.1c-0.2,0-0.4,0.1-0.4,0.3c0,0.2,0.1,0.3,0.4,0.4   c0.4,0.1,0.6,0.3,0.6,0.6c0,0.4-0.3,0.6-0.8,0.6c-0.2,0-0.5-0.1-0.6-0.1L126.3,36.7z"/>
	<path class="st2" d="M128.5,34.3c0,0.1-0.1,0.2-0.2,0.2c-0.1,0-0.2-0.1-0.2-0.2c0-0.1,0.1-0.2,0.2-0.2   C128.4,34.1,128.5,34.2,128.5,34.3z M128.1,37.1v-2.1h0.4v2.1H128.1z"/>
	<path class="st2" d="M129.6,34.3v0.6h0.6v0.3h-0.6v1.2c0,0.3,0.1,0.4,0.3,0.4c0.1,0,0.2,0,0.2,0l0,0.3c-0.1,0-0.2,0.1-0.3,0.1   c-0.2,0-0.3-0.1-0.4-0.2c-0.1-0.1-0.2-0.3-0.2-0.6v-1.2h-0.3v-0.3h0.3v-0.5L129.6,34.3z"/>
	<path class="st2" d="M133.9,37.1l0-0.3h0c-0.1,0.2-0.4,0.3-0.7,0.3c-0.4,0-0.7-0.3-0.7-0.6c0-0.5,0.5-0.8,1.3-0.8v0   c0-0.2,0-0.5-0.5-0.5c-0.2,0-0.4,0.1-0.6,0.2l-0.1-0.3c0.2-0.1,0.4-0.2,0.7-0.2c0.7,0,0.8,0.4,0.8,0.9v0.8c0,0.2,0,0.4,0,0.5H133.9   z M133.9,36c-0.4,0-0.9,0.1-0.9,0.5c0,0.3,0.2,0.4,0.4,0.4c0.3,0,0.5-0.2,0.5-0.4c0,0,0-0.1,0-0.1V36z"/>
	<path class="st2" d="M134.9,35.5c0-0.2,0-0.4,0-0.6h0.3l0,0.3h0c0.1-0.2,0.3-0.4,0.7-0.4c0.3,0,0.5,0.2,0.6,0.4h0   c0.1-0.1,0.2-0.2,0.2-0.3c0.1-0.1,0.3-0.2,0.5-0.2c0.3,0,0.7,0.2,0.7,0.9v1.3h-0.4v-1.2c0-0.4-0.2-0.7-0.5-0.7   c-0.2,0-0.4,0.2-0.5,0.4c0,0.1,0,0.1,0,0.2v1.3h-0.4v-1.3c0-0.3-0.2-0.6-0.4-0.6c-0.2,0-0.4,0.2-0.5,0.4c0,0.1,0,0.1,0,0.2v1.3   h-0.4V35.5z"/>
	<path class="st2" d="M138.8,36.1c0,0.5,0.3,0.7,0.7,0.7c0.3,0,0.4,0,0.6-0.1l0.1,0.3c-0.1,0.1-0.4,0.1-0.7,0.1   c-0.7,0-1.1-0.4-1.1-1.1c0-0.6,0.4-1.2,1-1.2c0.7,0,0.9,0.6,0.9,1c0,0.1,0,0.1,0,0.2H138.8z M139.9,35.8c0-0.2-0.1-0.6-0.5-0.6   c-0.4,0-0.6,0.4-0.6,0.6H139.9z"/>
	<path class="st2" d="M141.3,34.3v0.6h0.6v0.3h-0.6v1.2c0,0.3,0.1,0.4,0.3,0.4c0.1,0,0.2,0,0.2,0l0,0.3c-0.1,0-0.2,0.1-0.3,0.1   c-0.2,0-0.3-0.1-0.4-0.2c-0.1-0.1-0.2-0.3-0.2-0.6v-1.2h-0.3v-0.3h0.3v-0.5L141.3,34.3z"/>
	<path class="st2" d="M142,37.6c0.1-0.3,0.2-0.7,0.3-1.1l0.4,0c-0.1,0.4-0.3,0.9-0.4,1.1L142,37.6z"/>
	<path class="st2" d="M146.8,37c-0.1,0.1-0.3,0.1-0.6,0.1c-0.6,0-1.1-0.4-1.1-1.1c0-0.7,0.5-1.1,1.2-1.1c0.2,0,0.4,0.1,0.5,0.1   l-0.1,0.3c-0.1-0.1-0.2-0.1-0.5-0.1c-0.5,0-0.8,0.4-0.8,0.8c0,0.5,0.3,0.8,0.7,0.8c0.2,0,0.4-0.1,0.5-0.1L146.8,37z"/>
	<path class="st2" d="M149.2,36c0,0.8-0.6,1.1-1.1,1.1c-0.6,0-1-0.4-1-1.1c0-0.7,0.5-1.1,1.1-1.1C148.8,34.9,149.2,35.3,149.2,36z    M147.5,36c0,0.5,0.3,0.8,0.7,0.8c0.4,0,0.7-0.4,0.7-0.8c0-0.4-0.2-0.8-0.6-0.8C147.7,35.2,147.5,35.6,147.5,36z"/>
	<path class="st2" d="M149.7,35.5c0-0.2,0-0.4,0-0.6h0.3l0,0.4h0c0.1-0.2,0.4-0.4,0.7-0.4c0.3,0,0.8,0.2,0.8,0.9v1.3h-0.4v-1.2   c0-0.3-0.1-0.6-0.5-0.6c-0.3,0-0.5,0.2-0.5,0.4c0,0,0,0.1,0,0.2v1.3h-0.4V35.5z"/>
	<path class="st2" d="M152.1,36.7c0.1,0.1,0.3,0.2,0.5,0.2c0.3,0,0.4-0.1,0.4-0.3c0-0.2-0.1-0.3-0.4-0.4c-0.4-0.1-0.6-0.4-0.6-0.6   c0-0.3,0.3-0.6,0.7-0.6c0.2,0,0.4,0.1,0.5,0.1l-0.1,0.3c-0.1-0.1-0.2-0.1-0.4-0.1c-0.2,0-0.4,0.1-0.4,0.3c0,0.2,0.1,0.3,0.4,0.4   c0.4,0.1,0.6,0.3,0.6,0.6c0,0.4-0.3,0.6-0.8,0.6c-0.2,0-0.5-0.1-0.6-0.1L152.1,36.7z"/>
	<path class="st2" d="M154.1,36.1c0,0.5,0.3,0.7,0.7,0.7c0.3,0,0.4,0,0.6-0.1l0.1,0.3c-0.1,0.1-0.4,0.1-0.7,0.1   c-0.7,0-1.1-0.4-1.1-1.1c0-0.6,0.4-1.2,1-1.2c0.7,0,0.9,0.6,0.9,1c0,0.1,0,0.1,0,0.2H154.1z M155.3,35.8c0-0.2-0.1-0.6-0.5-0.6   c-0.4,0-0.6,0.4-0.6,0.6H155.3z"/>
	<path class="st2" d="M157.7,37c-0.1,0.1-0.3,0.1-0.6,0.1c-0.6,0-1.1-0.4-1.1-1.1c0-0.7,0.5-1.1,1.2-1.1c0.2,0,0.4,0.1,0.5,0.1   l-0.1,0.3c-0.1-0.1-0.2-0.1-0.5-0.1c-0.5,0-0.8,0.4-0.8,0.8c0,0.5,0.3,0.8,0.7,0.8c0.2,0,0.4-0.1,0.5-0.1L157.7,37z"/>
	<path class="st2" d="M158.6,34.3v0.6h0.6v0.3h-0.6v1.2c0,0.3,0.1,0.4,0.3,0.4c0.1,0,0.2,0,0.2,0l0,0.3c-0.1,0-0.2,0.1-0.3,0.1   c-0.2,0-0.3-0.1-0.4-0.2c-0.1-0.1-0.2-0.3-0.2-0.6v-1.2h-0.3v-0.3h0.3v-0.5L158.6,34.3z"/>
	<path class="st2" d="M159.8,36.1c0,0.5,0.3,0.7,0.7,0.7c0.3,0,0.4,0,0.6-0.1l0.1,0.3c-0.1,0.1-0.4,0.1-0.7,0.1   c-0.7,0-1.1-0.4-1.1-1.1c0-0.6,0.4-1.2,1-1.2c0.7,0,0.9,0.6,0.9,1c0,0.1,0,0.1,0,0.2H159.8z M161,35.8c0-0.2-0.1-0.6-0.5-0.6   c-0.4,0-0.6,0.4-0.6,0.6H161z"/>
	<path class="st2" d="M162.3,34.3v0.6h0.6v0.3h-0.6v1.2c0,0.3,0.1,0.4,0.3,0.4c0.1,0,0.2,0,0.2,0l0,0.3c-0.1,0-0.2,0.1-0.3,0.1   c-0.2,0-0.3-0.1-0.4-0.2c-0.1-0.1-0.2-0.3-0.2-0.6v-1.2h-0.3v-0.3h0.3v-0.5L162.3,34.3z"/>
	<path class="st2" d="M165.1,36.5c0,0.2,0,0.4,0,0.6h-0.3l0-0.4h0c-0.1,0.2-0.3,0.4-0.7,0.4c-0.3,0-0.7-0.2-0.7-0.9v-1.3h0.4v1.2   c0,0.4,0.1,0.7,0.5,0.7c0.3,0,0.4-0.2,0.5-0.4c0-0.1,0-0.1,0-0.2v-1.3h0.4V36.5z"/>
	<path class="st2" d="M165.7,35.6c0-0.3,0-0.5,0-0.7h0.3l0,0.4h0c0.1-0.3,0.3-0.5,0.6-0.5c0,0,0.1,0,0.1,0v0.4c0,0-0.1,0-0.1,0   c-0.3,0-0.5,0.2-0.5,0.5c0,0.1,0,0.1,0,0.2v1.1h-0.4V35.6z"/>
	<path class="st2" d="M170.5,37.1l0-0.3h0c-0.1,0.2-0.3,0.3-0.7,0.3c-0.4,0-0.7-0.3-0.7-0.6c0-0.5,0.5-0.8,1.3-0.8v0   c0-0.2,0-0.5-0.5-0.5c-0.2,0-0.4,0.1-0.6,0.2l-0.1-0.3c0.2-0.1,0.4-0.2,0.7-0.2c0.7,0,0.8,0.4,0.8,0.9v0.8c0,0.2,0,0.4,0,0.5H170.5   z M170.5,36c-0.4,0-0.9,0.1-0.9,0.5c0,0.3,0.2,0.4,0.4,0.4c0.3,0,0.5-0.2,0.5-0.4c0,0,0-0.1,0-0.1V36z"/>
	<path class="st2" d="M173.3,33.9v2.6c0,0.2,0,0.4,0,0.6H173l0-0.4h0c-0.1,0.2-0.4,0.4-0.7,0.4c-0.5,0-0.9-0.4-0.9-1.1   c0-0.7,0.4-1.2,1-1.2c0.3,0,0.6,0.2,0.6,0.3h0v-1.3H173.3z M172.9,35.8c0,0,0-0.1,0-0.2c-0.1-0.2-0.3-0.5-0.6-0.5   c-0.4,0-0.6,0.4-0.6,0.8c0,0.4,0.2,0.8,0.6,0.8c0.3,0,0.5-0.2,0.6-0.5c0-0.1,0-0.1,0-0.2V35.8z"/>
	<path class="st2" d="M174.4,34.3c0,0.1-0.1,0.2-0.2,0.2c-0.1,0-0.2-0.1-0.2-0.2c0-0.1,0.1-0.2,0.2-0.2   C174.3,34.1,174.4,34.2,174.4,34.3z M174,37.1v-2.1h0.4v2.1H174z"/>
	<path class="st2" d="M175,35.6c0-0.3,0-0.5,0-0.7h0.4l0,0.4h0c0.2-0.3,0.4-0.4,0.8-0.4c0.5,0,0.9,0.4,0.9,1.1c0,0.8-0.5,1.2-1,1.2   c-0.3,0-0.5-0.1-0.7-0.3h0v1.2H175V35.6z M175.4,36.2c0,0.1,0,0.1,0,0.2c0.1,0.3,0.3,0.5,0.6,0.5c0.4,0,0.7-0.3,0.7-0.8   c0-0.4-0.2-0.8-0.6-0.8c-0.3,0-0.5,0.2-0.6,0.5c0,0,0,0.1,0,0.2V36.2z"/>
	<path class="st2" d="M178,34.3c0,0.1-0.1,0.2-0.2,0.2c-0.1,0-0.2-0.1-0.2-0.2c0-0.1,0.1-0.2,0.2-0.2C177.9,34.1,178,34.2,178,34.3z    M177.5,37.1v-2.1h0.4v2.1H177.5z"/>
	<path class="st2" d="M178.5,36.7c0.1,0.1,0.3,0.2,0.5,0.2c0.3,0,0.4-0.1,0.4-0.3c0-0.2-0.1-0.3-0.4-0.4c-0.4-0.1-0.6-0.4-0.6-0.6   c0-0.3,0.3-0.6,0.7-0.6c0.2,0,0.4,0.1,0.5,0.1l-0.1,0.3c-0.1-0.1-0.2-0.1-0.4-0.1c-0.2,0-0.4,0.1-0.4,0.3c0,0.2,0.1,0.3,0.4,0.4   c0.4,0.1,0.6,0.3,0.6,0.6c0,0.4-0.3,0.6-0.8,0.6c-0.2,0-0.5-0.1-0.6-0.1L178.5,36.7z"/>
	<path class="st2" d="M181.9,37c-0.1,0.1-0.3,0.1-0.6,0.1c-0.6,0-1.1-0.4-1.1-1.1c0-0.7,0.5-1.1,1.2-1.1c0.2,0,0.4,0.1,0.5,0.1   l-0.1,0.3c-0.1-0.1-0.2-0.1-0.5-0.1c-0.5,0-0.8,0.4-0.8,0.8c0,0.5,0.3,0.8,0.7,0.8c0.2,0,0.4-0.1,0.5-0.1L181.9,37z"/>
	<path class="st2" d="M182.7,34.3c0,0.1-0.1,0.2-0.2,0.2c-0.1,0-0.2-0.1-0.2-0.2c0-0.1,0.1-0.2,0.2-0.2   C182.7,34.1,182.7,34.2,182.7,34.3z M182.3,37.1v-2.1h0.4v2.1H182.3z"/>
	<path class="st2" d="M183.3,35.5c0-0.2,0-0.4,0-0.6h0.3l0,0.4h0c0.1-0.2,0.4-0.4,0.7-0.4c0.3,0,0.8,0.2,0.8,0.9v1.3h-0.4v-1.2   c0-0.3-0.1-0.6-0.5-0.6c-0.3,0-0.5,0.2-0.5,0.4c0,0,0,0.1,0,0.2v1.3h-0.4V35.5z"/>
	<path class="st2" d="M187.7,34.9c0,0.2,0,0.3,0,0.6v1.2c0,0.5-0.1,0.8-0.3,1c-0.2,0.2-0.5,0.3-0.8,0.3c-0.3,0-0.5-0.1-0.7-0.2   l0.1-0.3c0.1,0.1,0.4,0.2,0.6,0.2c0.4,0,0.7-0.2,0.7-0.8v-0.2h0c-0.1,0.2-0.4,0.4-0.7,0.4c-0.5,0-0.9-0.5-0.9-1   c0-0.7,0.5-1.1,1-1.1c0.4,0,0.6,0.2,0.7,0.4h0l0-0.3H187.7z M187.3,35.8c0-0.1,0-0.1,0-0.2c-0.1-0.2-0.3-0.4-0.5-0.4   c-0.4,0-0.6,0.3-0.6,0.8c0,0.4,0.2,0.8,0.6,0.8c0.2,0,0.5-0.2,0.5-0.4c0-0.1,0-0.1,0-0.2V35.8z"/>
	<path class="st2" d="M190.6,36.1c0,0.5,0.3,0.7,0.7,0.7c0.3,0,0.4,0,0.6-0.1L192,37c-0.1,0.1-0.4,0.1-0.7,0.1   c-0.7,0-1.1-0.4-1.1-1.1c0-0.6,0.4-1.2,1-1.2c0.7,0,0.9,0.6,0.9,1c0,0.1,0,0.1,0,0.2H190.6z M191.8,35.8c0-0.2-0.1-0.6-0.5-0.6   c-0.4,0-0.6,0.4-0.6,0.6H191.8z"/>
	<path class="st2" d="M192.6,33.9h0.4v3.2h-0.4V33.9z"/>
	<path class="st2" d="M194.1,34.3c0,0.1-0.1,0.2-0.2,0.2c-0.1,0-0.2-0.1-0.2-0.2c0-0.1,0.1-0.2,0.2-0.2   C194,34.1,194.1,34.2,194.1,34.3z M193.7,37.1v-2.1h0.4v2.1H193.7z"/>
	<path class="st2" d="M195.2,34.3v0.6h0.6v0.3h-0.6v1.2c0,0.3,0.1,0.4,0.3,0.4c0.1,0,0.2,0,0.2,0l0,0.3c-0.1,0-0.2,0.1-0.3,0.1   c-0.2,0-0.3-0.1-0.4-0.2c-0.1-0.1-0.2-0.3-0.2-0.6v-1.2h-0.3v-0.3h0.3v-0.5L195.2,34.3z"/>
	<path class="st2" d="M195.9,37.6c0.1-0.3,0.2-0.7,0.3-1.1l0.4,0c-0.1,0.4-0.3,0.9-0.4,1.1L195.9,37.6z"/>
	<path class="st2" d="M199.2,36.7c0.1,0.1,0.3,0.2,0.5,0.2c0.3,0,0.4-0.1,0.4-0.3c0-0.2-0.1-0.3-0.4-0.4c-0.4-0.1-0.6-0.4-0.6-0.6   c0-0.3,0.3-0.6,0.7-0.6c0.2,0,0.4,0.1,0.5,0.1l-0.1,0.3c-0.1-0.1-0.2-0.1-0.4-0.1c-0.2,0-0.4,0.1-0.4,0.3c0,0.2,0.1,0.3,0.4,0.4   c0.4,0.1,0.6,0.3,0.6,0.6c0,0.4-0.3,0.6-0.8,0.6c-0.2,0-0.5-0.1-0.6-0.1L199.2,36.7z"/>
	<path class="st2" d="M201.2,36.1c0,0.5,0.3,0.7,0.7,0.7c0.3,0,0.4,0,0.6-0.1l0.1,0.3c-0.1,0.1-0.4,0.1-0.7,0.1   c-0.7,0-1.1-0.4-1.1-1.1c0-0.6,0.4-1.2,1-1.2c0.7,0,0.9,0.6,0.9,1c0,0.1,0,0.1,0,0.2H201.2z M202.4,35.8c0-0.2-0.1-0.6-0.5-0.6   c-0.4,0-0.6,0.4-0.6,0.6H202.4z"/>
	<path class="st2" d="M205.1,33.9v2.6c0,0.2,0,0.4,0,0.6h-0.4l0-0.4h0c-0.1,0.2-0.4,0.4-0.7,0.4c-0.5,0-0.9-0.4-0.9-1.1   c0-0.7,0.4-1.2,1-1.2c0.3,0,0.6,0.2,0.6,0.3h0v-1.3H205.1z M204.7,35.8c0,0,0-0.1,0-0.2c-0.1-0.2-0.3-0.5-0.6-0.5   c-0.4,0-0.6,0.4-0.6,0.8c0,0.4,0.2,0.8,0.6,0.8c0.3,0,0.5-0.2,0.6-0.5c0-0.1,0-0.1,0-0.2V35.8z"/>
	<path class="st2" d="M209.7,33.9v2.6c0,0.2,0,0.4,0,0.6h-0.4l0-0.4h0c-0.1,0.2-0.4,0.4-0.7,0.4c-0.5,0-0.9-0.4-0.9-1.1   c0-0.7,0.4-1.2,1-1.2c0.3,0,0.6,0.2,0.6,0.3h0v-1.3H209.7z M209.3,35.8c0,0,0-0.1,0-0.2c-0.1-0.2-0.3-0.5-0.6-0.5   c-0.4,0-0.6,0.4-0.6,0.8c0,0.4,0.2,0.8,0.6,0.8c0.3,0,0.5-0.2,0.6-0.5c0-0.1,0-0.1,0-0.2V35.8z"/>
	<path class="st2" d="M212.3,36c0,0.8-0.6,1.1-1.1,1.1c-0.6,0-1-0.4-1-1.1c0-0.7,0.5-1.1,1.1-1.1C211.9,34.9,212.3,35.3,212.3,36z    M210.6,36c0,0.5,0.3,0.8,0.7,0.8c0.4,0,0.7-0.4,0.7-0.8c0-0.4-0.2-0.8-0.6-0.8C210.8,35.2,210.6,35.6,210.6,36z"/>
	<path class="st2" d="M215.1,36.1c0,0.5,0.3,0.7,0.7,0.7c0.3,0,0.4,0,0.6-0.1l0.1,0.3c-0.1,0.1-0.4,0.1-0.7,0.1   c-0.7,0-1.1-0.4-1.1-1.1c0-0.6,0.4-1.2,1-1.2c0.7,0,0.9,0.6,0.9,1c0,0.1,0,0.1,0,0.2H215.1z M216.3,35.8c0-0.2-0.1-0.6-0.5-0.6   c-0.4,0-0.6,0.4-0.6,0.6H216.3z"/>
	<path class="st2" d="M217.6,34.3c0,0.1-0.1,0.2-0.2,0.2c-0.1,0-0.2-0.1-0.2-0.2c0-0.1,0.1-0.2,0.2-0.2   C217.5,34.1,217.6,34.2,217.6,34.3z M217.2,37.1v-2.1h0.4v2.1H217.2z"/>
	<path class="st2" d="M220,36.5c0,0.2,0,0.4,0,0.6h-0.3l0-0.4h0c-0.1,0.2-0.3,0.4-0.7,0.4c-0.3,0-0.7-0.2-0.7-0.9v-1.3h0.4v1.2   c0,0.4,0.1,0.7,0.5,0.7c0.3,0,0.4-0.2,0.5-0.4c0-0.1,0-0.1,0-0.2v-1.3h0.4V36.5z"/>
	<path class="st2" d="M220.6,36.7c0.1,0.1,0.3,0.2,0.5,0.2c0.3,0,0.4-0.1,0.4-0.3c0-0.2-0.1-0.3-0.4-0.4c-0.4-0.1-0.6-0.4-0.6-0.6   c0-0.3,0.3-0.6,0.7-0.6c0.2,0,0.4,0.1,0.5,0.1l-0.1,0.3c-0.1-0.1-0.2-0.1-0.4-0.1c-0.2,0-0.4,0.1-0.4,0.3c0,0.2,0.1,0.3,0.4,0.4   c0.4,0.1,0.6,0.3,0.6,0.6c0,0.4-0.3,0.6-0.8,0.6c-0.2,0-0.5-0.1-0.6-0.1L220.6,36.7z"/>
	<path class="st2" d="M222.4,35.5c0-0.2,0-0.4,0-0.6h0.3l0,0.3h0c0.1-0.2,0.3-0.4,0.7-0.4c0.3,0,0.5,0.2,0.6,0.4h0   c0.1-0.1,0.2-0.2,0.2-0.3c0.1-0.1,0.3-0.2,0.5-0.2c0.3,0,0.7,0.2,0.7,0.9v1.3h-0.4v-1.2c0-0.4-0.2-0.7-0.5-0.7   c-0.2,0-0.4,0.2-0.5,0.4c0,0.1,0,0.1,0,0.2v1.3h-0.4v-1.3c0-0.3-0.2-0.6-0.4-0.6c-0.2,0-0.4,0.2-0.5,0.4c0,0.1,0,0.1,0,0.2v1.3   h-0.4V35.5z"/>
	<path class="st2" d="M228,36c0,0.8-0.6,1.1-1.1,1.1c-0.6,0-1-0.4-1-1.1c0-0.7,0.5-1.1,1.1-1.1C227.6,34.9,228,35.3,228,36z    M226.3,36c0,0.5,0.3,0.8,0.7,0.8c0.4,0,0.7-0.4,0.7-0.8c0-0.4-0.2-0.8-0.6-0.8C226.5,35.2,226.3,35.6,226.3,36z"/>
	<path class="st2" d="M230.4,33.9v2.6c0,0.2,0,0.4,0,0.6H230l0-0.4h0c-0.1,0.2-0.4,0.4-0.7,0.4c-0.5,0-0.9-0.4-0.9-1.1   c0-0.7,0.4-1.2,1-1.2c0.3,0,0.6,0.2,0.6,0.3h0v-1.3H230.4z M230,35.8c0,0,0-0.1,0-0.2c-0.1-0.2-0.3-0.5-0.6-0.5   c-0.4,0-0.6,0.4-0.6,0.8c0,0.4,0.2,0.8,0.6,0.8c0.3,0,0.5-0.2,0.6-0.5c0-0.1,0-0.1,0-0.2V35.8z"/>
	<path class="st2" d="M233.1,36.7c0.1,0.1,0.3,0.2,0.5,0.2c0.3,0,0.4-0.1,0.4-0.3c0-0.2-0.1-0.3-0.4-0.4c-0.4-0.1-0.6-0.4-0.6-0.6   c0-0.3,0.3-0.6,0.7-0.6c0.2,0,0.4,0.1,0.5,0.1l-0.1,0.3c-0.1-0.1-0.2-0.1-0.4-0.1c-0.2,0-0.4,0.1-0.4,0.3c0,0.2,0.1,0.3,0.4,0.4   c0.4,0.1,0.6,0.3,0.6,0.6c0,0.4-0.3,0.6-0.8,0.6c-0.2,0-0.5-0.1-0.6-0.1L233.1,36.7z"/>
	<path class="st2" d="M237.1,35.5c0-0.2,0-0.4,0-0.6h0.3l0,0.4h0c0.1-0.2,0.4-0.4,0.7-0.4c0.3,0,0.8,0.2,0.8,0.9v1.3h-0.4v-1.2   c0-0.3-0.1-0.6-0.5-0.6c-0.3,0-0.5,0.2-0.5,0.4c0,0,0,0.1,0,0.2v1.3h-0.4V35.5z"/>
	<path class="st2" d="M241.5,36c0,0.8-0.6,1.1-1.1,1.1c-0.6,0-1-0.4-1-1.1c0-0.7,0.5-1.1,1.1-1.1C241,34.9,241.5,35.3,241.5,36z    M239.8,36c0,0.5,0.3,0.8,0.7,0.8c0.4,0,0.7-0.4,0.7-0.8c0-0.4-0.2-0.8-0.6-0.8C240,35.2,239.8,35.6,239.8,36z"/>
	<path class="st2" d="M241.9,36.7c0.1,0.1,0.3,0.2,0.5,0.2c0.3,0,0.4-0.1,0.4-0.3c0-0.2-0.1-0.3-0.4-0.4c-0.4-0.1-0.6-0.4-0.6-0.6   c0-0.3,0.3-0.6,0.7-0.6c0.2,0,0.4,0.1,0.5,0.1l-0.1,0.3c-0.1-0.1-0.2-0.1-0.4-0.1c-0.2,0-0.4,0.1-0.4,0.3c0,0.2,0.1,0.3,0.4,0.4   c0.4,0.1,0.6,0.3,0.6,0.6c0,0.4-0.3,0.6-0.8,0.6c-0.2,0-0.5-0.1-0.6-0.1L241.9,36.7z"/>
	<path class="st2" d="M244.2,34.3v0.6h0.6v0.3h-0.6v1.2c0,0.3,0.1,0.4,0.3,0.4c0.1,0,0.2,0,0.2,0l0,0.3c-0.1,0-0.2,0.1-0.3,0.1   c-0.2,0-0.3-0.1-0.4-0.2c-0.1-0.1-0.2-0.3-0.2-0.6v-1.2h-0.3v-0.3h0.3v-0.5L244.2,34.3z"/>
	<path class="st2" d="M245.2,35.6c0-0.3,0-0.5,0-0.7h0.3l0,0.4h0c0.1-0.3,0.3-0.5,0.6-0.5c0,0,0.1,0,0.1,0v0.4c0,0-0.1,0-0.1,0   c-0.3,0-0.5,0.2-0.5,0.5c0,0.1,0,0.1,0,0.2v1.1h-0.4V35.6z"/>
	<path class="st2" d="M248.4,36.5c0,0.2,0,0.4,0,0.6h-0.3l0-0.4h0c-0.1,0.2-0.3,0.4-0.7,0.4c-0.3,0-0.7-0.2-0.7-0.9v-1.3h0.4v1.2   c0,0.4,0.1,0.7,0.5,0.7c0.3,0,0.4-0.2,0.5-0.4c0-0.1,0-0.1,0-0.2v-1.3h0.4V36.5z"/>
	<path class="st2" d="M250.9,33.9v2.6c0,0.2,0,0.4,0,0.6h-0.4l0-0.4h0c-0.1,0.2-0.4,0.4-0.7,0.4c-0.5,0-0.9-0.4-0.9-1.1   c0-0.7,0.4-1.2,1-1.2c0.3,0,0.6,0.2,0.6,0.3h0v-1.3H250.9z M250.5,35.8c0,0,0-0.1,0-0.2c-0.1-0.2-0.3-0.5-0.6-0.5   c-0.4,0-0.6,0.4-0.6,0.8c0,0.4,0.2,0.8,0.6,0.8c0.3,0,0.5-0.2,0.6-0.5c0-0.1,0-0.1,0-0.2V35.8z"/>
</g>
<g>
	<path class="st2" d="M86.8,210.5h0.4v2.7h1.3v0.3h-1.7V210.5z"/>
	<path class="st2" d="M90.8,212.4c0,0.8-0.6,1.1-1.1,1.1c-0.6,0-1-0.4-1-1.1c0-0.7,0.5-1.1,1.1-1.1   C90.4,211.3,90.8,211.7,90.8,212.4z M89.1,212.4c0,0.5,0.3,0.8,0.7,0.8c0.4,0,0.7-0.4,0.7-0.8c0-0.4-0.2-0.8-0.6-0.8   C89.3,211.6,89.1,212,89.1,212.4z"/>
	<path class="st2" d="M91.3,212c0-0.3,0-0.5,0-0.7h0.3l0,0.4h0c0.1-0.3,0.3-0.5,0.6-0.5c0,0,0.1,0,0.1,0v0.4c0,0-0.1,0-0.1,0   c-0.3,0-0.5,0.2-0.5,0.5c0,0.1,0,0.1,0,0.2v1.1h-0.4V212z"/>
	<path class="st2" d="M92.9,212.5c0,0.5,0.3,0.7,0.7,0.7c0.3,0,0.4,0,0.6-0.1l0.1,0.3c-0.1,0.1-0.4,0.1-0.7,0.1   c-0.7,0-1.1-0.4-1.1-1.1c0-0.6,0.4-1.2,1-1.2c0.7,0,0.9,0.6,0.9,1c0,0.1,0,0.1,0,0.2H92.9z M94,212.2c0-0.2-0.1-0.6-0.5-0.6   c-0.4,0-0.6,0.4-0.6,0.6H94z"/>
	<path class="st2" d="M94.9,211.9c0-0.2,0-0.4,0-0.6h0.3l0,0.3h0c0.1-0.2,0.3-0.4,0.7-0.4c0.3,0,0.5,0.2,0.6,0.4h0   c0.1-0.1,0.2-0.2,0.2-0.3c0.1-0.1,0.3-0.2,0.5-0.2c0.3,0,0.7,0.2,0.7,0.9v1.3h-0.4v-1.2c0-0.4-0.2-0.7-0.5-0.7   c-0.2,0-0.4,0.2-0.5,0.4c0,0.1,0,0.1,0,0.2v1.3h-0.4v-1.3c0-0.3-0.2-0.6-0.4-0.6c-0.2,0-0.4,0.2-0.5,0.4c0,0.1,0,0.1,0,0.2v1.3   h-0.4V211.9z"/>
	<path class="st2" d="M101.2,210.7c0,0.1-0.1,0.2-0.2,0.2c-0.1,0-0.2-0.1-0.2-0.2c0-0.1,0.1-0.2,0.2-0.2   C101.1,210.5,101.2,210.6,101.2,210.7z M100.7,213.5v-2.1h0.4v2.1H100.7z"/>
	<path class="st2" d="M101.8,212c0-0.3,0-0.5,0-0.7h0.4l0,0.4h0c0.2-0.3,0.4-0.4,0.8-0.4c0.5,0,0.9,0.4,0.9,1.1c0,0.8-0.5,1.2-1,1.2   c-0.3,0-0.5-0.1-0.7-0.3h0v1.2h-0.4V212z M102.1,212.6c0,0.1,0,0.1,0,0.2c0.1,0.3,0.3,0.5,0.6,0.5c0.4,0,0.7-0.3,0.7-0.8   c0-0.4-0.2-0.8-0.6-0.8c-0.3,0-0.5,0.2-0.6,0.5c0,0,0,0.1,0,0.2V212.6z"/>
	<path class="st2" d="M104.2,213.1c0.1,0.1,0.3,0.2,0.5,0.2c0.3,0,0.4-0.1,0.4-0.3c0-0.2-0.1-0.3-0.4-0.4c-0.4-0.1-0.6-0.4-0.6-0.6   c0-0.3,0.3-0.6,0.7-0.6c0.2,0,0.4,0.1,0.5,0.1l-0.1,0.3c-0.1-0.1-0.2-0.1-0.4-0.1c-0.2,0-0.4,0.1-0.4,0.3c0,0.2,0.1,0.3,0.4,0.4   c0.4,0.1,0.6,0.3,0.6,0.6c0,0.4-0.3,0.6-0.8,0.6c-0.2,0-0.5-0.1-0.6-0.1L104.2,213.1z"/>
	<path class="st2" d="M107.8,212.9c0,0.2,0,0.4,0,0.6h-0.3l0-0.3h0c-0.1,0.2-0.3,0.4-0.7,0.4c-0.3,0-0.7-0.2-0.7-0.9v-1.3h0.4v1.2   c0,0.4,0.1,0.7,0.5,0.7c0.3,0,0.4-0.2,0.5-0.4c0-0.1,0-0.1,0-0.2v-1.3h0.4V212.9z"/>
	<path class="st2" d="M108.5,211.9c0-0.2,0-0.4,0-0.6h0.3l0,0.3h0c0.1-0.2,0.3-0.4,0.7-0.4c0.3,0,0.5,0.2,0.6,0.4h0   c0.1-0.1,0.2-0.2,0.2-0.3c0.1-0.1,0.3-0.2,0.5-0.2c0.3,0,0.7,0.2,0.7,0.9v1.3h-0.4v-1.2c0-0.4-0.2-0.7-0.5-0.7   c-0.2,0-0.4,0.2-0.5,0.4c0,0.1,0,0.1,0,0.2v1.3h-0.4v-1.3c0-0.3-0.2-0.6-0.4-0.6c-0.2,0-0.4,0.2-0.5,0.4c0,0.1,0,0.1,0,0.2v1.3   h-0.4V211.9z"/>
	<path class="st2" d="M116.2,210.3v2.6c0,0.2,0,0.4,0,0.6h-0.4l0-0.4h0c-0.1,0.2-0.4,0.4-0.7,0.4c-0.5,0-0.9-0.4-0.9-1.1   c0-0.7,0.4-1.2,1-1.2c0.3,0,0.6,0.2,0.6,0.3h0v-1.3H116.2z M115.8,212.2c0,0,0-0.1,0-0.2c-0.1-0.2-0.3-0.5-0.6-0.5   c-0.4,0-0.6,0.4-0.6,0.8c0,0.4,0.2,0.8,0.6,0.8c0.3,0,0.5-0.2,0.6-0.5c0-0.1,0-0.1,0-0.2V212.2z"/>
	<path class="st2" d="M118.8,212.4c0,0.8-0.6,1.1-1.1,1.1c-0.6,0-1-0.4-1-1.1c0-0.7,0.5-1.1,1.1-1.1   C118.3,211.3,118.8,211.7,118.8,212.4z M117.1,212.4c0,0.5,0.3,0.8,0.7,0.8c0.4,0,0.7-0.4,0.7-0.8c0-0.4-0.2-0.8-0.6-0.8   S117.1,212,117.1,212.4z"/>
	<path class="st2" d="M119.3,210.3h0.4v3.2h-0.4V210.3z"/>
	<path class="st2" d="M122.2,212.4c0,0.8-0.6,1.1-1.1,1.1c-0.6,0-1-0.4-1-1.1c0-0.7,0.5-1.1,1.1-1.1   C121.8,211.3,122.2,211.7,122.2,212.4z M120.5,212.4c0,0.5,0.3,0.8,0.7,0.8c0.4,0,0.7-0.4,0.7-0.8c0-0.4-0.2-0.8-0.6-0.8   S120.5,212,120.5,212.4z"/>
	<path class="st2" d="M122.7,212c0-0.3,0-0.5,0-0.7h0.3l0,0.4h0c0.1-0.3,0.3-0.5,0.6-0.5c0,0,0.1,0,0.1,0v0.4c0,0-0.1,0-0.1,0   c-0.3,0-0.5,0.2-0.5,0.5c0,0.1,0,0.1,0,0.2v1.1h-0.4V212z"/>
	<path class="st2" d="M126.3,213.1c0.1,0.1,0.3,0.2,0.5,0.2c0.3,0,0.4-0.1,0.4-0.3c0-0.2-0.1-0.3-0.4-0.4c-0.4-0.1-0.6-0.4-0.6-0.6   c0-0.3,0.3-0.6,0.7-0.6c0.2,0,0.4,0.1,0.5,0.1l-0.1,0.3c-0.1-0.1-0.2-0.1-0.4-0.1c-0.2,0-0.4,0.1-0.4,0.3c0,0.2,0.1,0.3,0.4,0.4   c0.4,0.1,0.6,0.3,0.6,0.6c0,0.4-0.3,0.6-0.8,0.6c-0.2,0-0.5-0.1-0.6-0.1L126.3,213.1z"/>
	<path class="st2" d="M128.5,210.7c0,0.1-0.1,0.2-0.2,0.2c-0.1,0-0.2-0.1-0.2-0.2c0-0.1,0.1-0.2,0.2-0.2   C128.4,210.5,128.5,210.6,128.5,210.7z M128.1,213.5v-2.1h0.4v2.1H128.1z"/>
	<path class="st2" d="M129.6,210.7v0.6h0.6v0.3h-0.6v1.2c0,0.3,0.1,0.4,0.3,0.4c0.1,0,0.2,0,0.2,0l0,0.3c-0.1,0-0.2,0.1-0.3,0.1   c-0.2,0-0.3-0.1-0.4-0.2c-0.1-0.1-0.2-0.3-0.2-0.6v-1.2h-0.3v-0.3h0.3v-0.5L129.6,210.7z"/>
	<path class="st2" d="M133.9,213.5l0-0.3h0c-0.1,0.2-0.4,0.3-0.7,0.3c-0.4,0-0.7-0.3-0.7-0.6c0-0.5,0.5-0.8,1.3-0.8v0   c0-0.2,0-0.5-0.5-0.5c-0.2,0-0.4,0.1-0.6,0.2l-0.1-0.3c0.2-0.1,0.4-0.2,0.7-0.2c0.7,0,0.8,0.4,0.8,0.9v0.8c0,0.2,0,0.4,0,0.5H133.9   z M133.9,212.4c-0.4,0-0.9,0.1-0.9,0.5c0,0.3,0.2,0.4,0.4,0.4c0.3,0,0.5-0.2,0.5-0.4c0,0,0-0.1,0-0.1V212.4z"/>
	<path class="st2" d="M134.9,211.9c0-0.2,0-0.4,0-0.6h0.3l0,0.3h0c0.1-0.2,0.3-0.4,0.7-0.4c0.3,0,0.5,0.2,0.6,0.4h0   c0.1-0.1,0.2-0.2,0.2-0.3c0.1-0.1,0.3-0.2,0.5-0.2c0.3,0,0.7,0.2,0.7,0.9v1.3h-0.4v-1.2c0-0.4-0.2-0.7-0.5-0.7   c-0.2,0-0.4,0.2-0.5,0.4c0,0.1,0,0.1,0,0.2v1.3h-0.4v-1.3c0-0.3-0.2-0.6-0.4-0.6c-0.2,0-0.4,0.2-0.5,0.4c0,0.1,0,0.1,0,0.2v1.3   h-0.4V211.9z"/>
	<path class="st2" d="M138.8,212.5c0,0.5,0.3,0.7,0.7,0.7c0.3,0,0.4,0,0.6-0.1l0.1,0.3c-0.1,0.1-0.4,0.1-0.7,0.1   c-0.7,0-1.1-0.4-1.1-1.1c0-0.6,0.4-1.2,1-1.2c0.7,0,0.9,0.6,0.9,1c0,0.1,0,0.1,0,0.2H138.8z M139.9,212.2c0-0.2-0.1-0.6-0.5-0.6   c-0.4,0-0.6,0.4-0.6,0.6H139.9z"/>
	<path class="st2" d="M141.3,210.7v0.6h0.6v0.3h-0.6v1.2c0,0.3,0.1,0.4,0.3,0.4c0.1,0,0.2,0,0.2,0l0,0.3c-0.1,0-0.2,0.1-0.3,0.1   c-0.2,0-0.3-0.1-0.4-0.2c-0.1-0.1-0.2-0.3-0.2-0.6v-1.2h-0.3v-0.3h0.3v-0.5L141.3,210.7z"/>
	<path class="st2" d="M142,214c0.1-0.3,0.2-0.7,0.3-1.1l0.4,0c-0.1,0.4-0.3,0.9-0.4,1.1L142,214z"/>
	<path class="st2" d="M146.8,213.4c-0.1,0.1-0.3,0.1-0.6,0.1c-0.6,0-1.1-0.4-1.1-1.1c0-0.7,0.5-1.1,1.2-1.1c0.2,0,0.4,0.1,0.5,0.1   l-0.1,0.3c-0.1-0.1-0.2-0.1-0.5-0.1c-0.5,0-0.8,0.4-0.8,0.8c0,0.5,0.3,0.8,0.7,0.8c0.2,0,0.4-0.1,0.5-0.1L146.8,213.4z"/>
	<path class="st2" d="M149.2,212.4c0,0.8-0.6,1.1-1.1,1.1c-0.6,0-1-0.4-1-1.1c0-0.7,0.5-1.1,1.1-1.1   C148.8,211.3,149.2,211.7,149.2,212.4z M147.5,212.4c0,0.5,0.3,0.8,0.7,0.8c0.4,0,0.7-0.4,0.7-0.8c0-0.4-0.2-0.8-0.6-0.8   C147.7,211.6,147.5,212,147.5,212.4z"/>
	<path class="st2" d="M149.7,211.9c0-0.2,0-0.4,0-0.6h0.3l0,0.4h0c0.1-0.2,0.4-0.4,0.7-0.4c0.3,0,0.8,0.2,0.8,0.9v1.3h-0.4v-1.2   c0-0.3-0.1-0.6-0.5-0.6c-0.3,0-0.5,0.2-0.5,0.4c0,0,0,0.1,0,0.2v1.3h-0.4V211.9z"/>
	<path class="st2" d="M152.1,213.1c0.1,0.1,0.3,0.2,0.5,0.2c0.3,0,0.4-0.1,0.4-0.3c0-0.2-0.1-0.3-0.4-0.4c-0.4-0.1-0.6-0.4-0.6-0.6   c0-0.3,0.3-0.6,0.7-0.6c0.2,0,0.4,0.1,0.5,0.1l-0.1,0.3c-0.1-0.1-0.2-0.1-0.4-0.1c-0.2,0-0.4,0.1-0.4,0.3c0,0.2,0.1,0.3,0.4,0.4   c0.4,0.1,0.6,0.3,0.6,0.6c0,0.4-0.3,0.6-0.8,0.6c-0.2,0-0.5-0.1-0.6-0.1L152.1,213.1z"/>
	<path class="st2" d="M154.1,212.5c0,0.5,0.3,0.7,0.7,0.7c0.3,0,0.4,0,0.6-0.1l0.1,0.3c-0.1,0.1-0.4,0.1-0.7,0.1   c-0.7,0-1.1-0.4-1.1-1.1c0-0.6,0.4-1.2,1-1.2c0.7,0,0.9,0.6,0.9,1c0,0.1,0,0.1,0,0.2H154.1z M155.3,212.2c0-0.2-0.1-0.6-0.5-0.6   c-0.4,0-0.6,0.4-0.6,0.6H155.3z"/>
	<path class="st2" d="M157.7,213.4c-0.1,0.1-0.3,0.1-0.6,0.1c-0.6,0-1.1-0.4-1.1-1.1c0-0.7,0.5-1.1,1.2-1.1c0.2,0,0.4,0.1,0.5,0.1   l-0.1,0.3c-0.1-0.1-0.2-0.1-0.5-0.1c-0.5,0-0.8,0.4-0.8,0.8c0,0.5,0.3,0.8,0.7,0.8c0.2,0,0.4-0.1,0.5-0.1L157.7,213.4z"/>
	<path class="st2" d="M158.6,210.7v0.6h0.6v0.3h-0.6v1.2c0,0.3,0.1,0.4,0.3,0.4c0.1,0,0.2,0,0.2,0l0,0.3c-0.1,0-0.2,0.1-0.3,0.1   c-0.2,0-0.3-0.1-0.4-0.2c-0.1-0.1-0.2-0.3-0.2-0.6v-1.2h-0.3v-0.3h0.3v-0.5L158.6,210.7z"/>
	<path class="st2" d="M159.8,212.5c0,0.5,0.3,0.7,0.7,0.7c0.3,0,0.4,0,0.6-0.1l0.1,0.3c-0.1,0.1-0.4,0.1-0.7,0.1   c-0.7,0-1.1-0.4-1.1-1.1c0-0.6,0.4-1.2,1-1.2c0.7,0,0.9,0.6,0.9,1c0,0.1,0,0.1,0,0.2H159.8z M161,212.2c0-0.2-0.1-0.6-0.5-0.6   c-0.4,0-0.6,0.4-0.6,0.6H161z"/>
	<path class="st2" d="M162.3,210.7v0.6h0.6v0.3h-0.6v1.2c0,0.3,0.1,0.4,0.3,0.4c0.1,0,0.2,0,0.2,0l0,0.3c-0.1,0-0.2,0.1-0.3,0.1   c-0.2,0-0.3-0.1-0.4-0.2c-0.1-0.1-0.2-0.3-0.2-0.6v-1.2h-0.3v-0.3h0.3v-0.5L162.3,210.7z"/>
	<path class="st2" d="M165.1,212.9c0,0.2,0,0.4,0,0.6h-0.3l0-0.3h0c-0.1,0.2-0.3,0.4-0.7,0.4c-0.3,0-0.7-0.2-0.7-0.9v-1.3h0.4v1.2   c0,0.4,0.1,0.7,0.5,0.7c0.3,0,0.4-0.2,0.5-0.4c0-0.1,0-0.1,0-0.2v-1.3h0.4V212.9z"/>
	<path class="st2" d="M165.7,212c0-0.3,0-0.5,0-0.7h0.3l0,0.4h0c0.1-0.3,0.3-0.5,0.6-0.5c0,0,0.1,0,0.1,0v0.4c0,0-0.1,0-0.1,0   c-0.3,0-0.5,0.2-0.5,0.5c0,0.1,0,0.1,0,0.2v1.1h-0.4V212z"/>
	<path class="st2" d="M170.5,213.5l0-0.3h0c-0.1,0.2-0.3,0.3-0.7,0.3c-0.4,0-0.7-0.3-0.7-0.6c0-0.5,0.5-0.8,1.3-0.8v0   c0-0.2,0-0.5-0.5-0.5c-0.2,0-0.4,0.1-0.6,0.2l-0.1-0.3c0.2-0.1,0.4-0.2,0.7-0.2c0.7,0,0.8,0.4,0.8,0.9v0.8c0,0.2,0,0.4,0,0.5H170.5   z M170.5,212.4c-0.4,0-0.9,0.1-0.9,0.5c0,0.3,0.2,0.4,0.4,0.4c0.3,0,0.5-0.2,0.5-0.4c0,0,0-0.1,0-0.1V212.4z"/>
	<path class="st2" d="M173.3,210.3v2.6c0,0.2,0,0.4,0,0.6H173l0-0.4h0c-0.1,0.2-0.4,0.4-0.7,0.4c-0.5,0-0.9-0.4-0.9-1.1   c0-0.7,0.4-1.2,1-1.2c0.3,0,0.6,0.2,0.6,0.3h0v-1.3H173.3z M172.9,212.2c0,0,0-0.1,0-0.2c-0.1-0.2-0.3-0.5-0.6-0.5   c-0.4,0-0.6,0.4-0.6,0.8c0,0.4,0.2,0.8,0.6,0.8c0.3,0,0.5-0.2,0.6-0.5c0-0.1,0-0.1,0-0.2V212.2z"/>
	<path class="st2" d="M174.4,210.7c0,0.1-0.1,0.2-0.2,0.2c-0.1,0-0.2-0.1-0.2-0.2c0-0.1,0.1-0.2,0.2-0.2   C174.3,210.5,174.4,210.6,174.4,210.7z M174,213.5v-2.1h0.4v2.1H174z"/>
	<path class="st2" d="M175,212c0-0.3,0-0.5,0-0.7h0.4l0,0.4h0c0.2-0.3,0.4-0.4,0.8-0.4c0.5,0,0.9,0.4,0.9,1.1c0,0.8-0.5,1.2-1,1.2   c-0.3,0-0.5-0.1-0.7-0.3h0v1.2H175V212z M175.4,212.6c0,0.1,0,0.1,0,0.2c0.1,0.3,0.3,0.5,0.6,0.5c0.4,0,0.7-0.3,0.7-0.8   c0-0.4-0.2-0.8-0.6-0.8c-0.3,0-0.5,0.2-0.6,0.5c0,0,0,0.1,0,0.2V212.6z"/>
	<path class="st2" d="M178,210.7c0,0.1-0.1,0.2-0.2,0.2c-0.1,0-0.2-0.1-0.2-0.2c0-0.1,0.1-0.2,0.2-0.2   C177.9,210.5,178,210.6,178,210.7z M177.5,213.5v-2.1h0.4v2.1H177.5z"/>
	<path class="st2" d="M178.5,213.1c0.1,0.1,0.3,0.2,0.5,0.2c0.3,0,0.4-0.1,0.4-0.3c0-0.2-0.1-0.3-0.4-0.4c-0.4-0.1-0.6-0.4-0.6-0.6   c0-0.3,0.3-0.6,0.7-0.6c0.2,0,0.4,0.1,0.5,0.1l-0.1,0.3c-0.1-0.1-0.2-0.1-0.4-0.1c-0.2,0-0.4,0.1-0.4,0.3c0,0.2,0.1,0.3,0.4,0.4   c0.4,0.1,0.6,0.3,0.6,0.6c0,0.4-0.3,0.6-0.8,0.6c-0.2,0-0.5-0.1-0.6-0.1L178.5,213.1z"/>
	<path class="st2" d="M181.9,213.4c-0.1,0.1-0.3,0.1-0.6,0.1c-0.6,0-1.1-0.4-1.1-1.1c0-0.7,0.5-1.1,1.2-1.1c0.2,0,0.4,0.1,0.5,0.1   l-0.1,0.3c-0.1-0.1-0.2-0.1-0.5-0.1c-0.5,0-0.8,0.4-0.8,0.8c0,0.5,0.3,0.8,0.7,0.8c0.2,0,0.4-0.1,0.5-0.1L181.9,213.4z"/>
	<path class="st2" d="M182.7,210.7c0,0.1-0.1,0.2-0.2,0.2c-0.1,0-0.2-0.1-0.2-0.2c0-0.1,0.1-0.2,0.2-0.2   C182.7,210.5,182.7,210.6,182.7,210.7z M182.3,213.5v-2.1h0.4v2.1H182.3z"/>
	<path class="st2" d="M183.3,211.9c0-0.2,0-0.4,0-0.6h0.3l0,0.4h0c0.1-0.2,0.4-0.4,0.7-0.4c0.3,0,0.8,0.2,0.8,0.9v1.3h-0.4v-1.2   c0-0.3-0.1-0.6-0.5-0.6c-0.3,0-0.5,0.2-0.5,0.4c0,0,0,0.1,0,0.2v1.3h-0.4V211.9z"/>
	<path class="st2" d="M187.7,211.3c0,0.2,0,0.3,0,0.6v1.2c0,0.5-0.1,0.8-0.3,1c-0.2,0.2-0.5,0.3-0.8,0.3c-0.3,0-0.5-0.1-0.7-0.2   l0.1-0.3c0.1,0.1,0.4,0.2,0.6,0.2c0.4,0,0.7-0.2,0.7-0.8v-0.2h0c-0.1,0.2-0.4,0.4-0.7,0.4c-0.5,0-0.9-0.5-0.9-1   c0-0.7,0.5-1.1,1-1.1c0.4,0,0.6,0.2,0.7,0.4h0l0-0.3H187.7z M187.3,212.2c0-0.1,0-0.1,0-0.2c-0.1-0.2-0.3-0.4-0.5-0.4   c-0.4,0-0.6,0.3-0.6,0.8c0,0.4,0.2,0.8,0.6,0.8c0.2,0,0.5-0.2,0.5-0.4c0-0.1,0-0.1,0-0.2V212.2z"/>
	<path class="st2" d="M190.6,212.5c0,0.5,0.3,0.7,0.7,0.7c0.3,0,0.4,0,0.6-0.1l0.1,0.3c-0.1,0.1-0.4,0.1-0.7,0.1   c-0.7,0-1.1-0.4-1.1-1.1c0-0.6,0.4-1.2,1-1.2c0.7,0,0.9,0.6,0.9,1c0,0.1,0,0.1,0,0.2H190.6z M191.8,212.2c0-0.2-0.1-0.6-0.5-0.6   c-0.4,0-0.6,0.4-0.6,0.6H191.8z"/>
	<path class="st2" d="M192.6,210.3h0.4v3.2h-0.4V210.3z"/>
	<path class="st2" d="M194.1,210.7c0,0.1-0.1,0.2-0.2,0.2c-0.1,0-0.2-0.1-0.2-0.2c0-0.1,0.1-0.2,0.2-0.2   C194,210.5,194.1,210.6,194.1,210.7z M193.7,213.5v-2.1h0.4v2.1H193.7z"/>
	<path class="st2" d="M195.2,210.7v0.6h0.6v0.3h-0.6v1.2c0,0.3,0.1,0.4,0.3,0.4c0.1,0,0.2,0,0.2,0l0,0.3c-0.1,0-0.2,0.1-0.3,0.1   c-0.2,0-0.3-0.1-0.4-0.2c-0.1-0.1-0.2-0.3-0.2-0.6v-1.2h-0.3v-0.3h0.3v-0.5L195.2,210.7z"/>
	<path class="st2" d="M195.9,214c0.1-0.3,0.2-0.7,0.3-1.1l0.4,0c-0.1,0.4-0.3,0.9-0.4,1.1L195.9,214z"/>
	<path class="st2" d="M199.2,213.1c0.1,0.1,0.3,0.2,0.5,0.2c0.3,0,0.4-0.1,0.4-0.3c0-0.2-0.1-0.3-0.4-0.4c-0.4-0.1-0.6-0.4-0.6-0.6   c0-0.3,0.3-0.6,0.7-0.6c0.2,0,0.4,0.1,0.5,0.1l-0.1,0.3c-0.1-0.1-0.2-0.1-0.4-0.1c-0.2,0-0.4,0.1-0.4,0.3c0,0.2,0.1,0.3,0.4,0.4   c0.4,0.1,0.6,0.3,0.6,0.6c0,0.4-0.3,0.6-0.8,0.6c-0.2,0-0.5-0.1-0.6-0.1L199.2,213.1z"/>
	<path class="st2" d="M201.2,212.5c0,0.5,0.3,0.7,0.7,0.7c0.3,0,0.4,0,0.6-0.1l0.1,0.3c-0.1,0.1-0.4,0.1-0.7,0.1   c-0.7,0-1.1-0.4-1.1-1.1c0-0.6,0.4-1.2,1-1.2c0.7,0,0.9,0.6,0.9,1c0,0.1,0,0.1,0,0.2H201.2z M202.4,212.2c0-0.2-0.1-0.6-0.5-0.6   c-0.4,0-0.6,0.4-0.6,0.6H202.4z"/>
	<path class="st2" d="M205.1,210.3v2.6c0,0.2,0,0.4,0,0.6h-0.4l0-0.4h0c-0.1,0.2-0.4,0.4-0.7,0.4c-0.5,0-0.9-0.4-0.9-1.1   c0-0.7,0.4-1.2,1-1.2c0.3,0,0.6,0.2,0.6,0.3h0v-1.3H205.1z M204.7,212.2c0,0,0-0.1,0-0.2c-0.1-0.2-0.3-0.5-0.6-0.5   c-0.4,0-0.6,0.4-0.6,0.8c0,0.4,0.2,0.8,0.6,0.8c0.3,0,0.5-0.2,0.6-0.5c0-0.1,0-0.1,0-0.2V212.2z"/>
	<path class="st2" d="M209.7,210.3v2.6c0,0.2,0,0.4,0,0.6h-0.4l0-0.4h0c-0.1,0.2-0.4,0.4-0.7,0.4c-0.5,0-0.9-0.4-0.9-1.1   c0-0.7,0.4-1.2,1-1.2c0.3,0,0.6,0.2,0.6,0.3h0v-1.3H209.7z M209.3,212.2c0,0,0-0.1,0-0.2c-0.1-0.2-0.3-0.5-0.6-0.5   c-0.4,0-0.6,0.4-0.6,0.8c0,0.4,0.2,0.8,0.6,0.8c0.3,0,0.5-0.2,0.6-0.5c0-0.1,0-0.1,0-0.2V212.2z"/>
	<path class="st2" d="M212.3,212.4c0,0.8-0.6,1.1-1.1,1.1c-0.6,0-1-0.4-1-1.1c0-0.7,0.5-1.1,1.1-1.1   C211.9,211.3,212.3,211.7,212.3,212.4z M210.6,212.4c0,0.5,0.3,0.8,0.7,0.8c0.4,0,0.7-0.4,0.7-0.8c0-0.4-0.2-0.8-0.6-0.8   C210.8,211.6,210.6,212,210.6,212.4z"/>
	<path class="st2" d="M215.1,212.5c0,0.5,0.3,0.7,0.7,0.7c0.3,0,0.4,0,0.6-0.1l0.1,0.3c-0.1,0.1-0.4,0.1-0.7,0.1   c-0.7,0-1.1-0.4-1.1-1.1c0-0.6,0.4-1.2,1-1.2c0.7,0,0.9,0.6,0.9,1c0,0.1,0,0.1,0,0.2H215.1z M216.3,212.2c0-0.2-0.1-0.6-0.5-0.6   c-0.4,0-0.6,0.4-0.6,0.6H216.3z"/>
	<path class="st2" d="M217.6,210.7c0,0.1-0.1,0.2-0.2,0.2c-0.1,0-0.2-0.1-0.2-0.2c0-0.1,0.1-0.2,0.2-0.2   C217.5,210.5,217.6,210.6,217.6,210.7z M217.2,213.5v-2.1h0.4v2.1H217.2z"/>
	<path class="st2" d="M220,212.9c0,0.2,0,0.4,0,0.6h-0.3l0-0.3h0c-0.1,0.2-0.3,0.4-0.7,0.4c-0.3,0-0.7-0.2-0.7-0.9v-1.3h0.4v1.2   c0,0.4,0.1,0.7,0.5,0.7c0.3,0,0.4-0.2,0.5-0.4c0-0.1,0-0.1,0-0.2v-1.3h0.4V212.9z"/>
	<path class="st2" d="M220.6,213.1c0.1,0.1,0.3,0.2,0.5,0.2c0.3,0,0.4-0.1,0.4-0.3c0-0.2-0.1-0.3-0.4-0.4c-0.4-0.1-0.6-0.4-0.6-0.6   c0-0.3,0.3-0.6,0.7-0.6c0.2,0,0.4,0.1,0.5,0.1l-0.1,0.3c-0.1-0.1-0.2-0.1-0.4-0.1c-0.2,0-0.4,0.1-0.4,0.3c0,0.2,0.1,0.3,0.4,0.4   c0.4,0.1,0.6,0.3,0.6,0.6c0,0.4-0.3,0.6-0.8,0.6c-0.2,0-0.5-0.1-0.6-0.1L220.6,213.1z"/>
	<path class="st2" d="M222.4,211.9c0-0.2,0-0.4,0-0.6h0.3l0,0.3h0c0.1-0.2,0.3-0.4,0.7-0.4c0.3,0,0.5,0.2,0.6,0.4h0   c0.1-0.1,0.2-0.2,0.2-0.3c0.1-0.1,0.3-0.2,0.5-0.2c0.3,0,0.7,0.2,0.7,0.9v1.3h-0.4v-1.2c0-0.4-0.2-0.7-0.5-0.7   c-0.2,0-0.4,0.2-0.5,0.4c0,0.1,0,0.1,0,0.2v1.3h-0.4v-1.3c0-0.3-0.2-0.6-0.4-0.6c-0.2,0-0.4,0.2-0.5,0.4c0,0.1,0,0.1,0,0.2v1.3   h-0.4V211.9z"/>
	<path class="st2" d="M228,212.4c0,0.8-0.6,1.1-1.1,1.1c-0.6,0-1-0.4-1-1.1c0-0.7,0.5-1.1,1.1-1.1C227.6,211.3,228,211.7,228,212.4z    M226.3,212.4c0,0.5,0.3,0.8,0.7,0.8c0.4,0,0.7-0.4,0.7-0.8c0-0.4-0.2-0.8-0.6-0.8C226.5,211.6,226.3,212,226.3,212.4z"/>
	<path class="st2" d="M230.4,210.3v2.6c0,0.2,0,0.4,0,0.6H230l0-0.4h0c-0.1,0.2-0.4,0.4-0.7,0.4c-0.5,0-0.9-0.4-0.9-1.1   c0-0.7,0.4-1.2,1-1.2c0.3,0,0.6,0.2,0.6,0.3h0v-1.3H230.4z M230,212.2c0,0,0-0.1,0-0.2c-0.1-0.2-0.3-0.5-0.6-0.5   c-0.4,0-0.6,0.4-0.6,0.8c0,0.4,0.2,0.8,0.6,0.8c0.3,0,0.5-0.2,0.6-0.5c0-0.1,0-0.1,0-0.2V212.2z"/>
	<path class="st2" d="M233.1,213.1c0.1,0.1,0.3,0.2,0.5,0.2c0.3,0,0.4-0.1,0.4-0.3c0-0.2-0.1-0.3-0.4-0.4c-0.4-0.1-0.6-0.4-0.6-0.6   c0-0.3,0.3-0.6,0.7-0.6c0.2,0,0.4,0.1,0.5,0.1l-0.1,0.3c-0.1-0.1-0.2-0.1-0.4-0.1c-0.2,0-0.4,0.1-0.4,0.3c0,0.2,0.1,0.3,0.4,0.4   c0.4,0.1,0.6,0.3,0.6,0.6c0,0.4-0.3,0.6-0.8,0.6c-0.2,0-0.5-0.1-0.6-0.1L233.1,213.1z"/>
	<path class="st2" d="M237.1,211.9c0-0.2,0-0.4,0-0.6h0.3l0,0.4h0c0.1-0.2,0.4-0.4,0.7-0.4c0.3,0,0.8,0.2,0.8,0.9v1.3h-0.4v-1.2   c0-0.3-0.1-0.6-0.5-0.6c-0.3,0-0.5,0.2-0.5,0.4c0,0,0,0.1,0,0.2v1.3h-0.4V211.9z"/>
	<path class="st2" d="M241.5,212.4c0,0.8-0.6,1.1-1.1,1.1c-0.6,0-1-0.4-1-1.1c0-0.7,0.5-1.1,1.1-1.1   C241,211.3,241.5,211.7,241.5,212.4z M239.8,212.4c0,0.5,0.3,0.8,0.7,0.8c0.4,0,0.7-0.4,0.7-0.8c0-0.4-0.2-0.8-0.6-0.8   C240,211.6,239.8,212,239.8,212.4z"/>
	<path class="st2" d="M241.9,213.1c0.1,0.1,0.3,0.2,0.5,0.2c0.3,0,0.4-0.1,0.4-0.3c0-0.2-0.1-0.3-0.4-0.4c-0.4-0.1-0.6-0.4-0.6-0.6   c0-0.3,0.3-0.6,0.7-0.6c0.2,0,0.4,0.1,0.5,0.1l-0.1,0.3c-0.1-0.1-0.2-0.1-0.4-0.1c-0.2,0-0.4,0.1-0.4,0.3c0,0.2,0.1,0.3,0.4,0.4   c0.4,0.1,0.6,0.3,0.6,0.6c0,0.4-0.3,0.6-0.8,0.6c-0.2,0-0.5-0.1-0.6-0.1L241.9,213.1z"/>
	<path class="st2" d="M244.2,210.7v0.6h0.6v0.3h-0.6v1.2c0,0.3,0.1,0.4,0.3,0.4c0.1,0,0.2,0,0.2,0l0,0.3c-0.1,0-0.2,0.1-0.3,0.1   c-0.2,0-0.3-0.1-0.4-0.2c-0.1-0.1-0.2-0.3-0.2-0.6v-1.2h-0.3v-0.3h0.3v-0.5L244.2,210.7z"/>
	<path class="st2" d="M245.2,212c0-0.3,0-0.5,0-0.7h0.3l0,0.4h0c0.1-0.3,0.3-0.5,0.6-0.5c0,0,0.1,0,0.1,0v0.4c0,0-0.1,0-0.1,0   c-0.3,0-0.5,0.2-0.5,0.5c0,0.1,0,0.1,0,0.2v1.1h-0.4V212z"/>
	<path class="st2" d="M248.4,212.9c0,0.2,0,0.4,0,0.6h-0.3l0-0.3h0c-0.1,0.2-0.3,0.4-0.7,0.4c-0.3,0-0.7-0.2-0.7-0.9v-1.3h0.4v1.2   c0,0.4,0.1,0.7,0.5,0.7c0.3,0,0.4-0.2,0.5-0.4c0-0.1,0-0.1,0-0.2v-1.3h0.4V212.9z"/>
	<path class="st2" d="M250.9,210.3v2.6c0,0.2,0,0.4,0,0.6h-0.4l0-0.4h0c-0.1,0.2-0.4,0.4-0.7,0.4c-0.5,0-0.9-0.4-0.9-1.1   c0-0.7,0.4-1.2,1-1.2c0.3,0,0.6,0.2,0.6,0.3h0v-1.3H250.9z M250.5,212.2c0,0,0-0.1,0-0.2c-0.1-0.2-0.3-0.5-0.6-0.5   c-0.4,0-0.6,0.4-0.6,0.8c0,0.4,0.2,0.8,0.6,0.8c0.3,0,0.5-0.2,0.6-0.5c0-0.1,0-0.1,0-0.2V212.2z"/>
	<path class="st2" d="M87,217.8c0,0.5,0.3,0.7,0.7,0.7c0.3,0,0.4,0,0.6-0.1l0.1,0.3c-0.1,0.1-0.4,0.1-0.7,0.1   c-0.7,0-1.1-0.4-1.1-1.1c0-0.6,0.4-1.2,1-1.2c0.7,0,0.9,0.6,0.9,1c0,0.1,0,0.1,0,0.2H87z M88.2,217.5c0-0.2-0.1-0.6-0.5-0.6   c-0.4,0-0.6,0.4-0.6,0.6H88.2z"/>
	<path class="st2" d="M89.2,216.6l0.3,0.5c0.1,0.1,0.1,0.2,0.2,0.4h0c0.1-0.1,0.1-0.2,0.2-0.4l0.3-0.5h0.4l-0.7,1l0.8,1.1h-0.4   l-0.3-0.5c-0.1-0.1-0.2-0.2-0.2-0.4h0c-0.1,0.1-0.1,0.2-0.2,0.4l-0.3,0.5h-0.4l0.8-1.1l-0.7-1.1H89.2z"/>
	<path class="st2" d="M91.2,217.8c0,0.5,0.3,0.7,0.7,0.7c0.3,0,0.4,0,0.6-0.1l0.1,0.3c-0.1,0.1-0.4,0.1-0.7,0.1   c-0.7,0-1.1-0.4-1.1-1.1c0-0.6,0.4-1.2,1-1.2c0.7,0,0.9,0.6,0.9,1c0,0.1,0,0.1,0,0.2H91.2z M92.4,217.5c0-0.2-0.1-0.6-0.5-0.6   c-0.4,0-0.6,0.4-0.6,0.6H92.4z"/>
	<path class="st2" d="M93.2,217.3c0-0.3,0-0.5,0-0.7h0.3l0,0.4h0c0.1-0.3,0.3-0.5,0.6-0.5c0,0,0.1,0,0.1,0v0.4c0,0-0.1,0-0.1,0   c-0.3,0-0.5,0.2-0.5,0.5c0,0.1,0,0.1,0,0.2v1.1h-0.4V217.3z"/>
	<path class="st2" d="M96.1,218.7c-0.1,0.1-0.3,0.1-0.6,0.1c-0.6,0-1.1-0.4-1.1-1.1c0-0.7,0.5-1.1,1.2-1.1c0.2,0,0.4,0.1,0.5,0.1   l-0.1,0.3c-0.1-0.1-0.2-0.1-0.5-0.1c-0.5,0-0.8,0.4-0.8,0.8c0,0.5,0.3,0.8,0.7,0.8c0.2,0,0.4-0.1,0.5-0.1L96.1,218.7z"/>
	<path class="st2" d="M97,216c0,0.1-0.1,0.2-0.2,0.2c-0.1,0-0.2-0.1-0.2-0.2c0-0.1,0.1-0.2,0.2-0.2C96.9,215.8,97,215.9,97,216z    M96.6,218.8v-2.1H97v2.1H96.6z"/>
	<path class="st2" d="M98.1,216v0.6h0.6v0.3h-0.6v1.2c0,0.3,0.1,0.4,0.3,0.4c0.1,0,0.2,0,0.2,0l0,0.3c-0.1,0-0.2,0.1-0.3,0.1   c-0.2,0-0.3-0.1-0.4-0.2c-0.1-0.1-0.2-0.3-0.2-0.6v-1.2h-0.3v-0.3h0.3v-0.5L98.1,216z"/>
	<path class="st2" d="M100.3,218.8l0-0.3h0c-0.1,0.2-0.4,0.3-0.7,0.3c-0.4,0-0.7-0.3-0.7-0.6c0-0.5,0.5-0.8,1.3-0.8v0   c0-0.2,0-0.5-0.5-0.5c-0.2,0-0.4,0.1-0.6,0.2l-0.1-0.3c0.2-0.1,0.4-0.2,0.7-0.2c0.7,0,0.8,0.4,0.8,0.9v0.8c0,0.2,0,0.4,0,0.5H100.3   z M100.2,217.7c-0.4,0-0.9,0.1-0.9,0.5c0,0.3,0.2,0.4,0.4,0.4c0.3,0,0.5-0.2,0.5-0.4c0,0,0-0.1,0-0.1V217.7z"/>
	<path class="st2" d="M101.7,216v0.6h0.6v0.3h-0.6v1.2c0,0.3,0.1,0.4,0.3,0.4c0.1,0,0.2,0,0.2,0l0,0.3c-0.1,0-0.2,0.1-0.3,0.1   c-0.2,0-0.3-0.1-0.4-0.2c-0.1-0.1-0.2-0.3-0.2-0.6v-1.2H101v-0.3h0.3v-0.5L101.7,216z"/>
	<path class="st2" d="M103.1,216c0,0.1-0.1,0.2-0.2,0.2c-0.1,0-0.2-0.1-0.2-0.2c0-0.1,0.1-0.2,0.2-0.2   C103,215.8,103.1,215.9,103.1,216z M102.7,218.8v-2.1h0.4v2.1H102.7z"/>
	<path class="st2" d="M105.7,217.7c0,0.8-0.6,1.1-1.1,1.1c-0.6,0-1-0.4-1-1.1c0-0.7,0.5-1.1,1.1-1.1   C105.3,216.6,105.7,217,105.7,217.7z M104,217.7c0,0.5,0.3,0.8,0.7,0.8c0.4,0,0.7-0.4,0.7-0.8c0-0.4-0.2-0.8-0.6-0.8   C104.2,216.9,104,217.3,104,217.7z"/>
	<path class="st2" d="M106.2,217.2c0-0.2,0-0.4,0-0.6h0.3l0,0.4h0c0.1-0.2,0.4-0.4,0.7-0.4c0.3,0,0.8,0.2,0.8,0.9v1.3h-0.4v-1.2   c0-0.3-0.1-0.6-0.5-0.6c-0.3,0-0.5,0.2-0.5,0.4c0,0,0,0.1,0,0.2v1.3h-0.4V217.2z"/>
	<path class="st2" d="M111.2,218.2c0,0.2,0,0.4,0,0.6h-0.3l0-0.4h0c-0.1,0.2-0.3,0.4-0.7,0.4c-0.3,0-0.7-0.2-0.7-0.9v-1.3h0.4v1.2   c0,0.4,0.1,0.7,0.5,0.7c0.3,0,0.4-0.2,0.5-0.4c0-0.1,0-0.1,0-0.2v-1.3h0.4V218.2z"/>
	<path class="st2" d="M111.8,215.6h0.4v3.2h-0.4V215.6z"/>
	<path class="st2" d="M112.9,215.6h0.4v3.2h-0.4V215.6z"/>
	<path class="st2" d="M115.1,218.8l0-0.3h0c-0.1,0.2-0.4,0.3-0.7,0.3c-0.4,0-0.7-0.3-0.7-0.6c0-0.5,0.5-0.8,1.3-0.8v0   c0-0.2,0-0.5-0.5-0.5c-0.2,0-0.4,0.1-0.6,0.2l-0.1-0.3c0.2-0.1,0.4-0.2,0.7-0.2c0.7,0,0.8,0.4,0.8,0.9v0.8c0,0.2,0,0.4,0,0.5H115.1   z M115.1,217.7c-0.4,0-0.9,0.1-0.9,0.5c0,0.3,0.2,0.4,0.4,0.4c0.3,0,0.5-0.2,0.5-0.4c0,0,0-0.1,0-0.1V217.7z"/>
	<path class="st2" d="M116.1,217.2c0-0.2,0-0.4,0-0.6h0.3l0,0.3h0c0.1-0.2,0.3-0.4,0.7-0.4c0.3,0,0.5,0.2,0.6,0.4h0   c0.1-0.1,0.2-0.2,0.2-0.3c0.1-0.1,0.3-0.2,0.5-0.2c0.3,0,0.7,0.2,0.7,0.9v1.3h-0.4v-1.2c0-0.4-0.2-0.7-0.5-0.7   c-0.2,0-0.4,0.2-0.5,0.4c0,0.1,0,0.1,0,0.2v1.3h-0.4v-1.3c0-0.3-0.2-0.6-0.4-0.6c-0.2,0-0.4,0.2-0.5,0.4c0,0.1,0,0.1,0,0.2v1.3   h-0.4V217.2z"/>
	<path class="st2" d="M121.3,218.7c-0.1,0.1-0.3,0.1-0.6,0.1c-0.6,0-1.1-0.4-1.1-1.1c0-0.7,0.5-1.1,1.2-1.1c0.2,0,0.4,0.1,0.5,0.1   l-0.1,0.3c-0.1-0.1-0.2-0.1-0.5-0.1c-0.5,0-0.8,0.4-0.8,0.8c0,0.5,0.3,0.8,0.7,0.8c0.2,0,0.4-0.1,0.5-0.1L121.3,218.7z"/>
	<path class="st2" d="M123.7,217.7c0,0.8-0.6,1.1-1.1,1.1c-0.6,0-1-0.4-1-1.1c0-0.7,0.5-1.1,1.1-1.1   C123.3,216.6,123.7,217,123.7,217.7z M122,217.7c0,0.5,0.3,0.8,0.7,0.8c0.4,0,0.7-0.4,0.7-0.8c0-0.4-0.2-0.8-0.6-0.8   C122.2,216.9,122,217.3,122,217.7z"/>
	<path class="st2" d="M124.9,215.6h0.4v3.2h-0.4V215.6z"/>
	<path class="st2" d="M127.2,218.8l0-0.3h0c-0.1,0.2-0.4,0.3-0.7,0.3c-0.4,0-0.7-0.3-0.7-0.6c0-0.5,0.5-0.8,1.3-0.8v0   c0-0.2,0-0.5-0.5-0.5c-0.2,0-0.4,0.1-0.6,0.2l-0.1-0.3c0.2-0.1,0.4-0.2,0.7-0.2c0.7,0,0.8,0.4,0.8,0.9v0.8c0,0.2,0,0.4,0,0.5H127.2   z M127.1,217.7c-0.4,0-0.9,0.1-0.9,0.5c0,0.3,0.2,0.4,0.4,0.4c0.3,0,0.5-0.2,0.5-0.4c0,0,0-0.1,0-0.1V217.7z"/>
	<path class="st2" d="M128.1,218.8c0-0.1,0-0.4,0-0.6v-2.6h0.4v1.3h0c0.1-0.2,0.4-0.4,0.7-0.4c0.5,0,0.9,0.4,0.9,1.1   c0,0.8-0.5,1.2-1,1.2c-0.3,0-0.6-0.1-0.7-0.4h0l0,0.4H128.1z M128.5,217.9c0,0,0,0.1,0,0.1c0.1,0.3,0.3,0.5,0.6,0.5   c0.4,0,0.7-0.3,0.7-0.8c0-0.4-0.2-0.8-0.6-0.8c-0.3,0-0.5,0.2-0.6,0.5c0,0,0,0.1,0,0.2V217.9z"/>
	<path class="st2" d="M132.6,217.7c0,0.8-0.6,1.1-1.1,1.1c-0.6,0-1-0.4-1-1.1c0-0.7,0.5-1.1,1.1-1.1   C132.2,216.6,132.6,217,132.6,217.7z M130.9,217.7c0,0.5,0.3,0.8,0.7,0.8c0.4,0,0.7-0.4,0.7-0.8c0-0.4-0.2-0.8-0.6-0.8   C131.1,216.9,130.9,217.3,130.9,217.7z"/>
	<path class="st2" d="M133.1,217.3c0-0.3,0-0.5,0-0.7h0.3l0,0.4h0c0.1-0.3,0.3-0.5,0.6-0.5c0,0,0.1,0,0.1,0v0.4c0,0-0.1,0-0.1,0   c-0.3,0-0.5,0.2-0.5,0.5c0,0.1,0,0.1,0,0.2v1.1h-0.4V217.3z"/>
	<path class="st2" d="M135,216c0,0.1-0.1,0.2-0.2,0.2c-0.1,0-0.2-0.1-0.2-0.2c0-0.1,0.1-0.2,0.2-0.2C134.9,215.8,135,215.9,135,216z    M134.5,218.8v-2.1h0.4v2.1H134.5z"/>
	<path class="st2" d="M135.5,218.4c0.1,0.1,0.3,0.2,0.5,0.2c0.3,0,0.4-0.1,0.4-0.3c0-0.2-0.1-0.3-0.4-0.4c-0.4-0.1-0.6-0.4-0.6-0.6   c0-0.3,0.3-0.6,0.7-0.6c0.2,0,0.4,0.1,0.5,0.1l-0.1,0.3c-0.1-0.1-0.2-0.1-0.4-0.1c-0.2,0-0.4,0.1-0.4,0.3c0,0.2,0.1,0.3,0.4,0.4   c0.4,0.1,0.6,0.3,0.6,0.6c0,0.4-0.3,0.6-0.8,0.6c-0.2,0-0.5-0.1-0.6-0.1L135.5,218.4z"/>
	<path class="st2" d="M138.1,217.2c0-0.2,0-0.4,0-0.6h0.3l0,0.4h0c0.1-0.2,0.4-0.4,0.7-0.4c0.3,0,0.8,0.2,0.8,0.9v1.3h-0.4v-1.2   c0-0.3-0.1-0.6-0.5-0.6c-0.3,0-0.5,0.2-0.5,0.4c0,0,0,0.1,0,0.2v1.3h-0.4V217.2z"/>
	<path class="st2" d="M141,216c0,0.1-0.1,0.2-0.2,0.2c-0.1,0-0.2-0.1-0.2-0.2c0-0.1,0.1-0.2,0.2-0.2C140.9,215.8,141,215.9,141,216z    M140.6,218.8v-2.1h0.4v2.1H140.6z"/>
	<path class="st2" d="M141.5,218.4c0.1,0.1,0.3,0.2,0.5,0.2c0.3,0,0.4-0.1,0.4-0.3c0-0.2-0.1-0.3-0.4-0.4c-0.4-0.1-0.6-0.4-0.6-0.6   c0-0.3,0.3-0.6,0.7-0.6c0.2,0,0.4,0.1,0.5,0.1l-0.1,0.3c-0.1-0.1-0.2-0.1-0.4-0.1c-0.2,0-0.4,0.1-0.4,0.3c0,0.2,0.1,0.3,0.4,0.4   c0.4,0.1,0.6,0.3,0.6,0.6c0,0.4-0.3,0.6-0.8,0.6c-0.2,0-0.5-0.1-0.6-0.1L141.5,218.4z"/>
	<path class="st2" d="M143.8,216c0,0.1-0.1,0.2-0.2,0.2c-0.1,0-0.2-0.1-0.2-0.2c0-0.1,0.1-0.2,0.2-0.2   C143.7,215.8,143.8,215.9,143.8,216z M143.3,218.8v-2.1h0.4v2.1H143.3z"/>
	<path class="st2" d="M146.9,218.2c0,0.2,0,0.4,0,0.6h-0.3l0-0.4h0c-0.1,0.2-0.3,0.4-0.7,0.4c-0.3,0-0.7-0.2-0.7-0.9v-1.3h0.4v1.2   c0,0.4,0.1,0.7,0.5,0.7c0.3,0,0.4-0.2,0.5-0.4c0-0.1,0-0.1,0-0.2v-1.3h0.4V218.2z"/>
	<path class="st2" d="M148.1,216v0.6h0.6v0.3h-0.6v1.2c0,0.3,0.1,0.4,0.3,0.4c0.1,0,0.2,0,0.2,0l0,0.3c-0.1,0-0.2,0.1-0.3,0.1   c-0.2,0-0.3-0.1-0.4-0.2c-0.1-0.1-0.2-0.3-0.2-0.6v-1.2h-0.3v-0.3h0.3v-0.5L148.1,216z"/>
	<path class="st2" d="M151,218.8l0-0.3h0c-0.1,0.2-0.4,0.3-0.7,0.3c-0.4,0-0.7-0.3-0.7-0.6c0-0.5,0.5-0.8,1.3-0.8v0   c0-0.2,0-0.5-0.5-0.5c-0.2,0-0.4,0.1-0.6,0.2l-0.1-0.3c0.2-0.1,0.4-0.2,0.7-0.2c0.7,0,0.8,0.4,0.8,0.9v0.8c0,0.2,0,0.4,0,0.5H151z    M151,217.7c-0.4,0-0.9,0.1-0.9,0.5c0,0.3,0.2,0.4,0.4,0.4c0.3,0,0.5-0.2,0.5-0.4c0,0,0-0.1,0-0.1V217.7z"/>
	<path class="st2" d="M152,215.6h0.4v3.2H152V215.6z"/>
	<path class="st2" d="M153.4,216c0,0.1-0.1,0.2-0.2,0.2c-0.1,0-0.2-0.1-0.2-0.2c0-0.1,0.1-0.2,0.2-0.2   C153.3,215.8,153.4,215.9,153.4,216z M153,218.8v-2.1h0.4v2.1H153z"/>
	<path class="st2" d="M155.5,218.5L155.5,218.5c-0.1,0.2-0.4,0.4-0.7,0.4c-0.5,0-0.9-0.4-0.9-1.1c0-0.8,0.5-1.2,1-1.2   c0.3,0,0.6,0.2,0.7,0.4h0l0-0.3h0.4c0,0.2,0,0.4,0,0.6v2.4h-0.4V218.5z M155.5,217.5c0-0.1,0-0.1,0-0.2c-0.1-0.2-0.3-0.4-0.6-0.4   c-0.4,0-0.6,0.3-0.6,0.8c0,0.4,0.2,0.8,0.6,0.8c0.3,0,0.5-0.2,0.6-0.4c0-0.1,0-0.1,0-0.2V217.5z"/>
	<path class="st2" d="M158.3,218.2c0,0.2,0,0.4,0,0.6H158l0-0.4h0c-0.1,0.2-0.3,0.4-0.7,0.4c-0.3,0-0.7-0.2-0.7-0.9v-1.3h0.4v1.2   c0,0.4,0.1,0.7,0.5,0.7c0.3,0,0.4-0.2,0.5-0.4c0-0.1,0-0.1,0-0.2v-1.3h0.4V218.2z"/>
	<path class="st2" d="M159.4,216c0,0.1-0.1,0.2-0.2,0.2c-0.1,0-0.2-0.1-0.2-0.2c0-0.1,0.1-0.2,0.2-0.2   C159.3,215.8,159.4,215.9,159.4,216z M159,218.8v-2.1h0.4v2.1H159z"/>
	<path class="st2" d="M160,217.3c0-0.3,0-0.5,0-0.7h0.4l0,0.4h0c0.2-0.3,0.4-0.4,0.8-0.4c0.5,0,0.9,0.4,0.9,1.1c0,0.8-0.5,1.2-1,1.2   c-0.3,0-0.5-0.1-0.7-0.3h0v1.2H160V217.3z M160.4,217.9c0,0.1,0,0.1,0,0.2c0.1,0.3,0.3,0.5,0.6,0.5c0.4,0,0.7-0.3,0.7-0.8   c0-0.4-0.2-0.8-0.6-0.8c-0.3,0-0.5,0.2-0.6,0.5c0,0,0,0.1,0,0.2V217.9z"/>
	<path class="st2" d="M163.5,217.8c0,0.5,0.3,0.7,0.7,0.7c0.3,0,0.4,0,0.6-0.1l0.1,0.3c-0.1,0.1-0.4,0.1-0.7,0.1   c-0.7,0-1.1-0.4-1.1-1.1c0-0.6,0.4-1.2,1-1.2c0.7,0,0.9,0.6,0.9,1c0,0.1,0,0.1,0,0.2H163.5z M164.7,217.5c0-0.2-0.1-0.6-0.5-0.6   c-0.4,0-0.6,0.4-0.6,0.6H164.7z"/>
	<path class="st2" d="M165.7,216.6l0.3,0.5c0.1,0.1,0.1,0.2,0.2,0.4h0c0.1-0.1,0.1-0.2,0.2-0.4l0.3-0.5h0.4l-0.7,1l0.8,1.1h-0.4   l-0.3-0.5c-0.1-0.1-0.2-0.2-0.2-0.4h0c-0.1,0.1-0.1,0.2-0.2,0.4l-0.3,0.5h-0.4l0.8-1.1l-0.7-1.1H165.7z"/>
	<path class="st2" d="M168.5,217.8c0,0.5,0.3,0.7,0.7,0.7c0.3,0,0.4,0,0.6-0.1l0.1,0.3c-0.1,0.1-0.4,0.1-0.7,0.1   c-0.7,0-1.1-0.4-1.1-1.1c0-0.6,0.4-1.2,1-1.2c0.7,0,0.9,0.6,0.9,1c0,0.1,0,0.1,0,0.2H168.5z M169.7,217.5c0-0.2-0.1-0.6-0.5-0.6   c-0.4,0-0.6,0.4-0.6,0.6H169.7z"/>
	<path class="st2" d="M171.7,218.8l0-0.3h0c-0.1,0.2-0.4,0.3-0.7,0.3c-0.4,0-0.7-0.3-0.7-0.6c0-0.5,0.5-0.8,1.3-0.8v0   c0-0.2,0-0.5-0.5-0.5c-0.2,0-0.4,0.1-0.6,0.2l-0.1-0.3c0.2-0.1,0.4-0.2,0.7-0.2c0.7,0,0.8,0.4,0.8,0.9v0.8c0,0.2,0,0.4,0,0.5H171.7   z M171.7,217.7c-0.4,0-0.9,0.1-0.9,0.5c0,0.3,0.2,0.4,0.4,0.4c0.3,0,0.5-0.2,0.5-0.4c0,0,0-0.1,0-0.1V217.7z"/>
	<path class="st2" d="M175,218.7c-0.1,0.1-0.3,0.1-0.6,0.1c-0.6,0-1.1-0.4-1.1-1.1c0-0.7,0.5-1.1,1.2-1.1c0.2,0,0.4,0.1,0.5,0.1   l-0.1,0.3c-0.1-0.1-0.2-0.1-0.5-0.1c-0.5,0-0.8,0.4-0.8,0.8c0,0.5,0.3,0.8,0.7,0.8c0.2,0,0.4-0.1,0.5-0.1L175,218.7z"/>
	<path class="st2" d="M177.4,217.7c0,0.8-0.6,1.1-1.1,1.1c-0.6,0-1-0.4-1-1.1c0-0.7,0.5-1.1,1.1-1.1   C176.9,216.6,177.4,217,177.4,217.7z M175.7,217.7c0,0.5,0.3,0.8,0.7,0.8c0.4,0,0.7-0.4,0.7-0.8c0-0.4-0.2-0.8-0.6-0.8   C175.9,216.9,175.7,217.3,175.7,217.7z"/>
	<path class="st2" d="M177.8,217.2c0-0.2,0-0.4,0-0.6h0.3l0,0.3h0c0.1-0.2,0.3-0.4,0.7-0.4c0.3,0,0.5,0.2,0.6,0.4h0   c0.1-0.1,0.2-0.2,0.2-0.3c0.1-0.1,0.3-0.2,0.5-0.2c0.3,0,0.7,0.2,0.7,0.9v1.3h-0.4v-1.2c0-0.4-0.2-0.7-0.5-0.7   c-0.2,0-0.4,0.2-0.5,0.4c0,0.1,0,0.1,0,0.2v1.3h-0.4v-1.3c0-0.3-0.2-0.6-0.4-0.6c-0.2,0-0.4,0.2-0.5,0.4c0,0.1,0,0.1,0,0.2v1.3   h-0.4V217.2z"/>
	<path class="st2" d="M181.5,217.2c0-0.2,0-0.4,0-0.6h0.3l0,0.3h0c0.1-0.2,0.3-0.4,0.7-0.4c0.3,0,0.5,0.2,0.6,0.4h0   c0.1-0.1,0.2-0.2,0.2-0.3c0.1-0.1,0.3-0.2,0.5-0.2c0.3,0,0.7,0.2,0.7,0.9v1.3h-0.4v-1.2c0-0.4-0.2-0.7-0.5-0.7   c-0.2,0-0.4,0.2-0.5,0.4c0,0.1,0,0.1,0,0.2v1.3h-0.4v-1.3c0-0.3-0.2-0.6-0.4-0.6c-0.2,0-0.4,0.2-0.5,0.4c0,0.1,0,0.1,0,0.2v1.3   h-0.4V217.2z"/>
	<path class="st2" d="M187.2,217.7c0,0.8-0.6,1.1-1.1,1.1c-0.6,0-1-0.4-1-1.1c0-0.7,0.5-1.1,1.1-1.1   C186.8,216.6,187.2,217,187.2,217.7z M185.5,217.7c0,0.5,0.3,0.8,0.7,0.8c0.4,0,0.7-0.4,0.7-0.8c0-0.4-0.2-0.8-0.6-0.8   C185.7,216.9,185.5,217.3,185.5,217.7z"/>
	<path class="st2" d="M189.5,215.6v2.6c0,0.2,0,0.4,0,0.6h-0.4l0-0.4h0c-0.1,0.2-0.4,0.4-0.7,0.4c-0.5,0-0.9-0.4-0.9-1.1   c0-0.7,0.4-1.2,1-1.2c0.3,0,0.6,0.2,0.6,0.3h0v-1.3H189.5z M189.1,217.5c0,0,0-0.1,0-0.2c-0.1-0.2-0.3-0.5-0.6-0.5   c-0.4,0-0.6,0.4-0.6,0.8c0,0.4,0.2,0.8,0.6,0.8c0.3,0,0.5-0.2,0.6-0.5c0-0.1,0-0.1,0-0.2V217.5z"/>
	<path class="st2" d="M192.1,217.7c0,0.8-0.6,1.1-1.1,1.1c-0.6,0-1-0.4-1-1.1c0-0.7,0.5-1.1,1.1-1.1   C191.7,216.6,192.1,217,192.1,217.7z M190.4,217.7c0,0.5,0.3,0.8,0.7,0.8c0.4,0,0.7-0.4,0.7-0.8c0-0.4-0.2-0.8-0.6-0.8   C190.6,216.9,190.4,217.3,190.4,217.7z"/>
	<path class="st2" d="M194.9,218.7c-0.1,0.1-0.3,0.1-0.6,0.1c-0.6,0-1.1-0.4-1.1-1.1c0-0.7,0.5-1.1,1.2-1.1c0.2,0,0.4,0.1,0.5,0.1   l-0.1,0.3c-0.1-0.1-0.2-0.1-0.5-0.1c-0.5,0-0.8,0.4-0.8,0.8c0,0.5,0.3,0.8,0.7,0.8c0.2,0,0.4-0.1,0.5-0.1L194.9,218.7z"/>
	<path class="st2" d="M197.3,217.7c0,0.8-0.6,1.1-1.1,1.1c-0.6,0-1-0.4-1-1.1c0-0.7,0.5-1.1,1.1-1.1   C196.9,216.6,197.3,217,197.3,217.7z M195.6,217.7c0,0.5,0.3,0.8,0.7,0.8c0.4,0,0.7-0.4,0.7-0.8c0-0.4-0.2-0.8-0.6-0.8   C195.8,216.9,195.6,217.3,195.6,217.7z"/>
	<path class="st2" d="M197.8,217.2c0-0.2,0-0.4,0-0.6h0.3l0,0.4h0c0.1-0.2,0.4-0.4,0.7-0.4c0.3,0,0.8,0.2,0.8,0.9v1.3h-0.4v-1.2   c0-0.3-0.1-0.6-0.5-0.6c-0.3,0-0.5,0.2-0.5,0.4c0,0,0,0.1,0,0.2v1.3h-0.4V217.2z"/>
	<path class="st2" d="M200.2,218.4c0.1,0.1,0.3,0.2,0.5,0.2c0.3,0,0.4-0.1,0.4-0.3c0-0.2-0.1-0.3-0.4-0.4c-0.4-0.1-0.6-0.4-0.6-0.6   c0-0.3,0.3-0.6,0.7-0.6c0.2,0,0.4,0.1,0.5,0.1l-0.1,0.3c-0.1-0.1-0.2-0.1-0.4-0.1c-0.2,0-0.4,0.1-0.4,0.3c0,0.2,0.1,0.3,0.4,0.4   c0.4,0.1,0.6,0.3,0.6,0.6c0,0.4-0.3,0.6-0.8,0.6c-0.2,0-0.5-0.1-0.6-0.1L200.2,218.4z"/>
	<path class="st2" d="M202.2,217.8c0,0.5,0.3,0.7,0.7,0.7c0.3,0,0.4,0,0.6-0.1l0.1,0.3c-0.1,0.1-0.4,0.1-0.7,0.1   c-0.7,0-1.1-0.4-1.1-1.1c0-0.6,0.4-1.2,1-1.2c0.7,0,0.9,0.6,0.9,1c0,0.1,0,0.1,0,0.2H202.2z M203.4,217.5c0-0.2-0.1-0.6-0.5-0.6   c-0.4,0-0.6,0.4-0.6,0.6H203.4z"/>
	<path class="st2" d="M205.7,218.5L205.7,218.5c-0.1,0.2-0.4,0.4-0.7,0.4c-0.5,0-0.9-0.4-0.9-1.1c0-0.8,0.5-1.2,1-1.2   c0.3,0,0.6,0.2,0.7,0.4h0l0-0.3h0.4c0,0.2,0,0.4,0,0.6v2.4h-0.4V218.5z M205.7,217.5c0-0.1,0-0.1,0-0.2c-0.1-0.2-0.3-0.4-0.6-0.4   c-0.4,0-0.6,0.3-0.6,0.8c0,0.4,0.2,0.8,0.6,0.8c0.3,0,0.5-0.2,0.6-0.4c0-0.1,0-0.1,0-0.2V217.5z"/>
	<path class="st2" d="M208.5,218.2c0,0.2,0,0.4,0,0.6h-0.3l0-0.4h0c-0.1,0.2-0.3,0.4-0.7,0.4c-0.3,0-0.7-0.2-0.7-0.9v-1.3h0.4v1.2   c0,0.4,0.1,0.7,0.5,0.7c0.3,0,0.4-0.2,0.5-0.4c0-0.1,0-0.1,0-0.2v-1.3h0.4V218.2z"/>
	<path class="st2" d="M210.3,218.8l0-0.3h0c-0.1,0.2-0.4,0.3-0.7,0.3c-0.4,0-0.7-0.3-0.7-0.6c0-0.5,0.5-0.8,1.3-0.8v0   c0-0.2,0-0.5-0.5-0.5c-0.2,0-0.4,0.1-0.6,0.2l-0.1-0.3c0.2-0.1,0.4-0.2,0.7-0.2c0.7,0,0.8,0.4,0.8,0.9v0.8c0,0.2,0,0.4,0,0.5H210.3   z M210.3,217.7c-0.4,0-0.9,0.1-0.9,0.5c0,0.3,0.2,0.4,0.4,0.4c0.3,0,0.5-0.2,0.5-0.4c0,0,0-0.1,0-0.1V217.7z"/>
	<path class="st2" d="M211.7,216v0.6h0.6v0.3h-0.6v1.2c0,0.3,0.1,0.4,0.3,0.4c0.1,0,0.2,0,0.2,0l0,0.3c-0.1,0-0.2,0.1-0.3,0.1   c-0.2,0-0.3-0.1-0.4-0.2c-0.1-0.1-0.2-0.3-0.2-0.6v-1.2H211v-0.3h0.3v-0.5L211.7,216z"/>
	<path class="st2" d="M212.6,218.6c0-0.2,0.1-0.3,0.3-0.3c0.2,0,0.3,0.1,0.3,0.3c0,0.2-0.1,0.3-0.3,0.3   C212.7,218.8,212.6,218.7,212.6,218.6z"/>
	<path class="st2" d="M214.4,215.8c0.2,0,0.5-0.1,0.8-0.1c0.6,0,1,0.1,1.2,0.4c0.3,0.2,0.4,0.6,0.4,1.1c0,0.5-0.2,0.9-0.4,1.2   c-0.3,0.3-0.7,0.4-1.3,0.4c-0.3,0-0.5,0-0.7,0V215.8z M214.8,218.5c0.1,0,0.2,0,0.4,0c0.8,0,1.3-0.5,1.3-1.3c0-0.7-0.4-1.2-1.2-1.2   c-0.2,0-0.4,0-0.5,0V218.5z"/>
	<path class="st2" d="M219.2,218.2c0,0.2,0,0.4,0,0.6h-0.3l0-0.4h0c-0.1,0.2-0.3,0.4-0.7,0.4c-0.3,0-0.7-0.2-0.7-0.9v-1.3h0.4v1.2   c0,0.4,0.1,0.7,0.5,0.7c0.3,0,0.4-0.2,0.5-0.4c0-0.1,0-0.1,0-0.2v-1.3h0.4V218.2z"/>
	<path class="st2" d="M220.3,216c0,0.1-0.1,0.2-0.2,0.2c-0.1,0-0.2-0.1-0.2-0.2c0-0.1,0.1-0.2,0.2-0.2   C220.2,215.8,220.3,215.9,220.3,216z M219.8,218.8v-2.1h0.4v2.1H219.8z"/>
	<path class="st2" d="M220.8,218.4c0.1,0.1,0.3,0.2,0.5,0.2c0.3,0,0.4-0.1,0.4-0.3c0-0.2-0.1-0.3-0.4-0.4c-0.4-0.1-0.6-0.4-0.6-0.6   c0-0.3,0.3-0.6,0.7-0.6c0.2,0,0.4,0.1,0.5,0.1l-0.1,0.3c-0.1-0.1-0.2-0.1-0.4-0.1c-0.2,0-0.4,0.1-0.4,0.3c0,0.2,0.1,0.3,0.4,0.4   c0.4,0.1,0.6,0.3,0.6,0.6c0,0.4-0.3,0.6-0.8,0.6c-0.2,0-0.5-0.1-0.6-0.1L220.8,218.4z"/>
	<path class="st2" d="M224.6,218.8l0-0.3h0c-0.1,0.2-0.4,0.3-0.7,0.3c-0.4,0-0.7-0.3-0.7-0.6c0-0.5,0.5-0.8,1.3-0.8v0   c0-0.2,0-0.5-0.5-0.5c-0.2,0-0.4,0.1-0.6,0.2l-0.1-0.3c0.2-0.1,0.4-0.2,0.7-0.2c0.7,0,0.8,0.4,0.8,0.9v0.8c0,0.2,0,0.4,0,0.5H224.6   z M224.5,217.7c-0.4,0-0.9,0.1-0.9,0.5c0,0.3,0.2,0.4,0.4,0.4c0.3,0,0.5-0.2,0.5-0.4c0,0,0-0.1,0-0.1V217.7z"/>
	<path class="st2" d="M227.3,218.2c0,0.2,0,0.4,0,0.6H227l0-0.4h0c-0.1,0.2-0.3,0.4-0.7,0.4c-0.3,0-0.7-0.2-0.7-0.9v-1.3h0.4v1.2   c0,0.4,0.1,0.7,0.5,0.7c0.3,0,0.4-0.2,0.5-0.4c0-0.1,0-0.1,0-0.2v-1.3h0.4V218.2z"/>
	<path class="st2" d="M228.4,216v0.6h0.6v0.3h-0.6v1.2c0,0.3,0.1,0.4,0.3,0.4c0.1,0,0.2,0,0.2,0l0,0.3c-0.1,0-0.2,0.1-0.3,0.1   c-0.2,0-0.3-0.1-0.4-0.2c-0.1-0.1-0.2-0.3-0.2-0.6v-1.2h-0.3v-0.3h0.3v-0.5L228.4,216z"/>
	<path class="st2" d="M229.6,217.8c0,0.5,0.3,0.7,0.7,0.7c0.3,0,0.4,0,0.6-0.1l0.1,0.3c-0.1,0.1-0.4,0.1-0.7,0.1   c-0.7,0-1.1-0.4-1.1-1.1c0-0.6,0.4-1.2,1-1.2c0.7,0,0.9,0.6,0.9,1c0,0.1,0,0.1,0,0.2H229.6z M230.8,217.5c0-0.2-0.1-0.6-0.5-0.6   c-0.4,0-0.6,0.4-0.6,0.6H230.8z"/>
	<path class="st2" d="M232.8,216c0,0.1-0.1,0.2-0.2,0.2c-0.1,0-0.2-0.1-0.2-0.2c0-0.1,0.1-0.2,0.2-0.2   C232.7,215.8,232.8,215.9,232.8,216z M232.4,218.8v-2.1h0.4v2.1H232.4z"/>
	<path class="st2" d="M233.4,217.3c0-0.3,0-0.5,0-0.7h0.3l0,0.4h0c0.1-0.3,0.3-0.5,0.6-0.5c0,0,0.1,0,0.1,0v0.4c0,0-0.1,0-0.1,0   c-0.3,0-0.5,0.2-0.5,0.5c0,0.1,0,0.1,0,0.2v1.1h-0.4V217.3z"/>
	<path class="st2" d="M236.7,218.2c0,0.2,0,0.4,0,0.6h-0.3l0-0.4h0c-0.1,0.2-0.3,0.4-0.7,0.4c-0.3,0-0.7-0.2-0.7-0.9v-1.3h0.4v1.2   c0,0.4,0.1,0.7,0.5,0.7c0.3,0,0.4-0.2,0.5-0.4c0-0.1,0-0.1,0-0.2v-1.3h0.4V218.2z"/>
	<path class="st2" d="M237.3,217.3c0-0.3,0-0.5,0-0.7h0.3l0,0.4h0c0.1-0.3,0.3-0.5,0.6-0.5c0,0,0.1,0,0.1,0v0.4c0,0-0.1,0-0.1,0   c-0.3,0-0.5,0.2-0.5,0.5c0,0.1,0,0.1,0,0.2v1.1h-0.4V217.3z"/>
	<path class="st2" d="M238.9,217.8c0,0.5,0.3,0.7,0.7,0.7c0.3,0,0.4,0,0.6-0.1l0.1,0.3c-0.1,0.1-0.4,0.1-0.7,0.1   c-0.7,0-1.1-0.4-1.1-1.1c0-0.6,0.4-1.2,1-1.2c0.7,0,0.9,0.6,0.9,1c0,0.1,0,0.1,0,0.2H238.9z M240.1,217.5c0-0.2-0.1-0.6-0.5-0.6   c-0.4,0-0.6,0.4-0.6,0.6H240.1z"/>
	<path class="st2" d="M243.6,215.6v2.6c0,0.2,0,0.4,0,0.6h-0.4l0-0.4h0c-0.1,0.2-0.4,0.4-0.7,0.4c-0.5,0-0.9-0.4-0.9-1.1   c0-0.7,0.4-1.2,1-1.2c0.3,0,0.6,0.2,0.6,0.3h0v-1.3H243.6z M243.2,217.5c0,0,0-0.1,0-0.2c-0.1-0.2-0.3-0.5-0.6-0.5   c-0.4,0-0.6,0.4-0.6,0.8c0,0.4,0.2,0.8,0.6,0.8c0.3,0,0.5-0.2,0.6-0.5c0-0.1,0-0.1,0-0.2V217.5z"/>
	<path class="st2" d="M246.1,217.7c0,0.8-0.6,1.1-1.1,1.1c-0.6,0-1-0.4-1-1.1c0-0.7,0.5-1.1,1.1-1.1   C245.7,216.6,246.1,217,246.1,217.7z M244.4,217.7c0,0.5,0.3,0.8,0.7,0.8c0.4,0,0.7-0.4,0.7-0.8c0-0.4-0.2-0.8-0.6-0.8   C244.6,216.9,244.4,217.3,244.4,217.7z"/>
	<path class="st2" d="M246.6,215.6h0.4v3.2h-0.4V215.6z"/>
	<path class="st2" d="M249.6,217.7c0,0.8-0.6,1.1-1.1,1.1c-0.6,0-1-0.4-1-1.1c0-0.7,0.5-1.1,1.1-1.1   C249.2,216.6,249.6,217,249.6,217.7z M247.9,217.7c0,0.5,0.3,0.8,0.7,0.8c0.4,0,0.7-0.4,0.7-0.8c0-0.4-0.2-0.8-0.6-0.8   C248.1,216.9,247.9,217.3,247.9,217.7z"/>
	<path class="st2" d="M250.1,217.3c0-0.3,0-0.5,0-0.7h0.3l0,0.4h0c0.1-0.3,0.3-0.5,0.6-0.5c0,0,0.1,0,0.1,0v0.4c0,0-0.1,0-0.1,0   c-0.3,0-0.5,0.2-0.5,0.5c0,0.1,0,0.1,0,0.2v1.1h-0.4V217.3z"/>
</g>
<g>
	<path class="st2" d="M110.7,21.2c-0.3-1.3-0.3-2.2-0.3-2.2h-0.1c0,0,0,0.9-0.3,2.2l-1.1,4.6c-0.3,0.1-0.9,0.1-1.5,0.1   c-0.6,0-1.1,0-1.4-0.1l-2.4-8.5c0,0,0.4-0.1,1.1-0.1c0.7,0,1,0.1,1,0.1l1.3,4.8c0.2,0.9,0.4,1.9,0.4,1.9h0.1c0,0,0.1-1,0.3-1.9   l1.1-4.8c0,0,0.4-0.1,1.3-0.1c0.9,0,1.3,0.1,1.3,0.1l1.1,4.8c0.2,1,0.3,1.9,0.3,1.9h0.1c0,0,0.1-0.9,0.4-1.9l1.3-4.8   c0,0,0.4-0.1,1-0.1c0.6,0,1,0.1,1,0.1l-2.4,8.5c0,0-0.5,0.1-1.3,0.1c-0.9,0-1.4-0.1-1.4-0.1L110.7,21.2z"/>
	<path class="st2" d="M124.1,17.2c0.1,0.2,0.1,0.4,0.1,0.7c0,0.3-0.1,0.6-0.1,0.8h-3.8v2.1h3.1c0.1,0.2,0.1,0.4,0.1,0.7   c0,0.3-0.1,0.5-0.1,0.7h-3.1v2.2h4c0.1,0.2,0.1,0.5,0.1,0.7c0,0.3,0,0.5-0.1,0.7h-6.2v-8.7H124.1z"/>
	<path class="st2" d="M129.8,17.2c1.8,0,2.9,0.9,2.9,2.4c0,0.8-0.4,1.4-1.1,1.8c0.8,0.4,1.4,1,1.4,2c0,1.6-1.2,2.5-3.1,2.5h-4.1   v-8.7H129.8z M129.4,20.8c0.7,0,1.1-0.4,1.1-1.1c0-0.7-0.4-1.1-1.1-1.1H128v2.2H129.4z M129.5,24.5c0.9,0,1.3-0.4,1.3-1.2   c0-0.8-0.4-1.2-1.3-1.2H128v2.3H129.5z"/>
	<path class="st2" d="M137.2,17.3c0,0,0.4-0.1,1.1-0.1c0.7,0,1.1,0.1,1.1,0.1v8.5c0,0-0.4,0.1-1.1,0.1c-0.7,0-1.1-0.1-1.1-0.1V17.3z   "/>
	<path class="st2" d="M143.9,21.4c-0.5-1-0.8-2-0.8-2H143c0,0,0.1,1,0.1,2.3v4.1c0,0-0.3,0.1-1,0.1c-0.6,0-1-0.1-1-0.1v-8.5   c0,0,0.5-0.1,1.4-0.1c0.9,0,1.4,0.1,1.4,0.1l2.3,4.4c0.5,1,0.9,2.2,0.9,2.2h0.1c0,0-0.1-1.2-0.1-2.5v-4.1c0,0,0.4-0.1,1-0.1   c0.6,0,0.9,0.1,0.9,0.1v8.5c0,0-0.4,0.1-1.4,0.1c-0.9,0-1.4-0.1-1.4-0.1L143.9,21.4z"/>
	<path class="st2" d="M153.1,25.8c0,0-0.4,0.1-1.1,0.1c-0.7,0-1.1-0.1-1.1-0.1v-8.6h5.9c0.1,0.2,0.1,0.4,0.1,0.7   c0,0.3-0.1,0.5-0.1,0.8h-3.7V21h3.3c0.1,0.2,0.1,0.4,0.1,0.7c0,0.3-0.1,0.6-0.1,0.8h-3.3V25.8z"/>
	<path class="st2" d="M162,17.1c2.5,0,4.2,1.4,4.2,4.5s-1.6,4.5-4.2,4.5c-2.6,0-4.2-1.4-4.2-4.5C157.8,18.5,159.4,17.1,162,17.1z    M162,18.6c-1.1,0-1.8,0.6-1.8,3c0,2.4,0.7,3,1.8,3c1.1,0,1.8-0.6,1.8-3C163.8,19.2,163.1,18.6,162,18.6z"/>
	<path class="st2" d="M171.9,17.1c1.8,0,2.8,0.5,2.8,0.5c0,0.5-0.2,1-0.6,1.3c0,0-0.9-0.3-1.9-0.3c-1.5,0-2.5,0.7-2.5,2.9   c0,2.3,1,2.9,2.5,2.9c0.3,0,0.7,0,0.7,0v-2.1h-1.5c0,0-0.1-0.3-0.1-0.7c0-0.5,0.1-0.8,0.1-0.8h3.6v4.7c0,0-1,0.5-2.9,0.5   c-3,0-4.6-1.6-4.6-4.5S168.9,17.1,171.9,17.1z"/>
	<path class="st2" d="M180.3,17.2c2.1,0,3.2,1.1,3.2,2.7c0,1.1-0.6,2-1.7,2.4l2.2,3.5c0,0-0.5,0.1-1.3,0.1c-0.8,0-1.2-0.1-1.2-0.1   l-2-3.3h-0.9v3.3c0,0-0.4,0.1-1.1,0.1c-0.7,0-1.1-0.1-1.1-0.1v-8.6H180.3z M178.7,21.1h1.3c0.8,0,1.3-0.4,1.3-1.2   c0-0.7-0.4-1.2-1.3-1.2h-1.3V21.1z"/>
	<path class="st2" d="M188.9,17.2c0.9,0,1.4,0.1,1.4,0.1l3.1,8.5c0,0-0.4,0.1-1.2,0.1c-0.7,0-1.1-0.1-1.1-0.1l-0.6-1.8h-3.5   l-0.6,1.8c0,0-0.4,0.1-1.1,0.1c-0.6,0-1-0.1-1-0.1l3.1-8.5C187.5,17.3,188,17.2,188.9,17.2z M188.8,19c0,0-0.1,0.7-0.4,1.4   l-0.8,2.2h2.4l-0.8-2.2C188.9,19.7,188.8,19,188.8,19L188.8,19z"/>
	<path class="st2" d="M196.7,25.8c0,0-0.4,0.1-1.1,0.1c-0.7,0-1.1-0.1-1.1-0.1v-8.6h3.8c2,0,3.2,1.1,3.2,2.8c0,1.7-1.2,2.8-3.2,2.8   h-1.6V25.8z M198,21.3c0.8,0,1.3-0.4,1.3-1.3c0-0.8-0.5-1.3-1.3-1.3h-1.3v2.5H198z"/>
	<path class="st2" d="M208.1,17.3c0,0,0.4-0.1,1.1-0.1c0.7,0,1.1,0.1,1.1,0.1v8.5c0,0-0.4,0.1-1.1,0.1c-0.7,0-1.1-0.1-1.1-0.1v-3.6   H205v3.6c0,0-0.4,0.1-1.1,0.1c-0.7,0-1.1-0.1-1.1-0.1v-8.5c0,0,0.4-0.1,1.1-0.1c0.7,0,1.1,0.1,1.1,0.1v3.3h3.1V17.3z"/>
	<path class="st2" d="M212.2,17.3c0,0,0.4-0.1,1.1-0.1c0.7,0,1.1,0.1,1.1,0.1v8.5c0,0-0.4,0.1-1.1,0.1c-0.7,0-1.1-0.1-1.1-0.1V17.3z   "/>
	<path class="st2" d="M220.2,17.1c1.7,0,2.5,0.5,2.5,0.5c0,0.5-0.2,1-0.6,1.3c0,0-0.7-0.2-1.6-0.2c-1.4,0-2.3,0.6-2.3,2.9   c0,2.3,0.9,2.9,2.3,2.9c0.9,0,1.7-0.3,1.7-0.3c0.4,0.3,0.6,0.8,0.6,1.4c0,0-0.9,0.5-2.7,0.5c-2.8,0-4.3-1.6-4.3-4.5   S217.4,17.1,220.2,17.1z"/>
	<path class="st2" d="M227.4,17.1c1.8,0,2.9,0.4,2.9,0.4c0,0.5-0.2,1.1-0.5,1.4c0,0-0.9-0.2-2-0.2c-1.2,0-1.7,0.3-1.7,0.9   c0,0.7,1.1,0.8,2.3,1.2c1.2,0.4,2.4,1,2.4,2.6c0,1.8-1.2,2.7-3.7,2.7c-2,0-3.3-0.6-3.3-0.6c0-0.5,0.2-1.1,0.5-1.5   c0,0,1.2,0.4,2.6,0.4c1.1,0,1.6-0.3,1.6-0.9c0-0.6-0.6-0.8-1.4-1c-1.4-0.4-3.2-0.8-3.2-2.7C223.8,18.2,224.9,17.1,227.4,17.1z"/>
</g>
<g>
	<circle class="st3" cx="262.8" cy="200.8" r="3.9"/>
</g>
<g>
	<circle class="st3" cx="71.4" cy="39.1" r="3.9"/>
</g>
<g>
	<circle class="st3" cx="300.8" cy="24.9" r="3.9"/>
</g>
<g>
	<circle class="st3" cx="41.4" cy="217.8" r="3.9"/>
</g>
<g>
	<circle class="st3" cx="103.5" cy="195" r="3.9"/>
</g>
<g>
	<circle class="st3" cx="245.4" cy="52.5" r="3.9"/>
</g>
<g>
	<circle class="st3" cx="315.7" cy="221.8" r="3.9"/>
</g>
<g>
	<circle class="st3" cx="20.8" cy="21.7" r="3.9"/>
</g>
<g>
	<circle class="st3" cx="279.3" cy="212.3" r="7.1"/>
</g>
<g>
	<circle class="st3" cx="63.1" cy="214.9" r="7.1"/>
</g>
<g>
	<circle class="st3" cx="279.5" cy="28.8" r="7.1"/>
</g>
<g>
	<circle class="st3" cx="56.8" cy="24.7" r="7.1"/>
</g>
<g>
	<rect x="141.5" y="175.7" class="st4" width="53.1" height="14.2"/>
</g>
<g>
	<path class="st4" d="M86.6,164.5V69.6c0-2,1.6-3.7,3.7-3.7h155.4c2,0,3.7,1.6,3.7,3.7v94.9H86.6z"/>
</g>
<g>
	<path class="st5" d="M245.7,179.2H90.3c-2,0-3.7-1.6-3.7-3.7v-11h162.7v11C249.3,177.5,247.7,179.2,245.7,179.2z"/>
</g>
<g>
	<path class="st6" d="M243,73.1v84.2H93V73.1H243z"/>
</g>
<g>
	<path class="st5" d="M202.7,189.9c0,2.1-1.7,3.9-3.9,3.9h-61.7c-2.1,0-3.9-1.7-3.9-3.9l0,0c0-2.1,1.7-3.9,3.9-3.9h61.7   C201,186,202.7,187.7,202.7,189.9L202.7,189.9z"/>
</g>
<g>
	<rect x="115" y="49.4" class="st7" width="106.8" height="107.9"/>
</g>
<g>
	<rect x="115" y="49.4" class="st8" width="106.8" height="29.1"/>
</g>
<g class="st9">
	<g>
		<rect x="125" y="111.7" class="st0" width="85.3" height="4.9"/>
	</g>
	<g>
		<rect x="125.6" y="122.2" class="st0" width="19.8" height="4.9"/>
	</g>
	<g>
		<rect x="190.5" y="122.2" class="st0" width="20.1" height="4.9"/>
	</g>
	<g>
		<rect x="125.6" y="132.9" class="st0" width="19.8" height="4.9"/>
	</g>
	<g>
		<rect x="190.5" y="132.9" class="st0" width="20.1" height="4.9"/>
	</g>
	<g>
		<rect x="125" y="87.3" class="st0" width="85.6" height="19.3"/>
	</g>
	<g>
		<rect x="174.2" y="87.3" class="st0" width="36.5" height="8.4"/>
	</g>
	<g>
		<rect x="174.2" y="100.9" class="st0" width="36.5" height="5.6"/>
	</g>
	<g>
		<rect x="150.2" y="122.2" class="st0" width="35.8" height="15.6"/>
	</g>
	<g>
		<rect x="125" y="143.3" class="st0" width="85.6" height="4.9"/>
	</g>
</g>
<g>
	<path class="st10" d="M140.2,55.5h2.4l-2.4,16.1h-2.2l-1.3-8.8l-1.2,8.8h-2.2l-2.5-16.1h2.4l1.2,8.6l1.1-8.6h2.4l1.2,8.6   L140.2,55.5z"/>
	<path class="st10" d="M144.6,71.6V55.5h6.5v2.4h-4.2v4.4h3.1v2.4h-3.1v4.4h4.2v2.4H144.6z"/>
	<path class="st10" d="M152.7,71.6V55.5h3.4c0.9,0,1.7,0.3,2.5,0.8c0.6,0.4,1.1,1.1,1.3,2c0.1,0.5,0.2,1,0.2,1.7   c0,1.1-0.3,1.9-0.8,2.6c-0.2,0.3-0.5,0.5-0.8,0.6c0.5,0.2,0.9,0.6,1.3,1.2c0.2,0.4,0.4,0.9,0.5,1.6c0.1,0.3,0.1,0.7,0.1,1.1   c0,1-0.2,1.9-0.5,2.6c-0.3,0.6-0.7,1-1.2,1.3c-0.6,0.4-1.2,0.6-1.7,0.6H152.7z M155.2,62.1h1c0.7,0,1.2-0.4,1.4-1.1   c0.1-0.3,0.1-0.6,0.1-1c0-0.7-0.2-1.2-0.5-1.5c-0.3-0.3-0.7-0.5-1.1-0.5h-1V62.1z M155.2,69.2h1c0.8,0,1.3-0.4,1.6-1.3   c0.1-0.3,0.2-0.6,0.2-1c0-0.9-0.2-1.6-0.5-2c-0.3-0.4-0.7-0.6-1.3-0.6h-1V69.2z"/>
	<path class="st10" d="M167.5,71.6h-2.3V55.5h3.3l2.1,11.5l2.1-11.5h3.2v16.1h-2.3V61.5l-2,10.1h-1.8l-2.2-10.1V71.6z"/>
	<path class="st10" d="M177.9,71.6V55.5h6.5v2.4h-4.2v4.4h3.1v2.4h-3.1v4.4h4.2v2.4H177.9z"/>
	<path class="st10" d="M193.2,67.7c0,1.1-0.4,2-1.1,2.7c-0.7,0.8-1.6,1.1-2.5,1.1H186V55.5h3.6c1,0,1.9,0.4,2.6,1.1   c0.7,0.8,1.1,1.7,1.1,2.7V67.7z M188.3,69.2h1.4c0.4,0,0.7-0.1,0.9-0.4c0.3-0.3,0.4-0.6,0.4-1v-8.4c0-0.4-0.1-0.7-0.4-1   c-0.3-0.3-0.6-0.4-0.9-0.4h-1.4V69.2z"/>
	<path class="st10" d="M197.5,71.6h-2.3V55.5h2.3V71.6z"/>
	<path class="st10" d="M202.4,67.9l-0.6,3.7h-2.4l2.6-16.1h3.2l2.5,16.1h-2.4l-0.5-3.7H202.4z M203.6,59.2l-0.8,6.3h1.7L203.6,59.2z   "/>
</g>
<g>
	<g>
		<path class="st11" d="M271.7,167.2h11.8v-11.8C277.4,156.1,272.6,161,271.7,167.2z"/>
	</g>
	<g>
		<path class="st12" d="M296.4,159v18.9c0,1.2-0.9,2.1-2.1,2.1h-18.9c1.1,8.5,8.7,15.1,17.9,15.1c10,0,18.1-8.1,18.1-18.1    C311.5,167.9,304.8,160.2,296.4,159z"/>
	</g>
	<g>
		<path class="st13" d="M294.3,154.7c-1.2,0-2.1,0.9-2.1,2.1v19h-19c-1.2,0-2.1,0.9-2.1,2.1c0,11.8,10,21.3,22.2,21.3    c12.3,0,22.2-10,22.2-22.2C315.7,164.9,305.9,154.7,294.3,154.7z M293.4,195.1c-9.2,0-16.9-6.6-17.9-15.1h18.9    c1.2,0,2.1-0.9,2.1-2.1V159c8.4,1.1,15.1,8.9,15.1,17.9C311.5,186.9,303.4,195.1,293.4,195.1z"/>
	</g>
	<g>
		<path class="st13" d="M287.2,169v-15.6c0-1-0.8-1.8-1.8-1.8c-9.6,0-17.4,7.8-17.4,17.4c0,1,0.8,1.8,1.8,1.8h15.6    C286.4,170.8,287.2,170,287.2,169z M283.6,167.2h-11.8c0.8-6.1,5.7-11,11.8-11.8V167.2z"/>
	</g>
</g>
<g>
	<g>
		<path class="st11" d="M25,79.4h24.6c1.1,0,1.8,1,1.8,2.1v5.2l5.7-6.6c0.4-0.5,1.1-0.8,1.7-0.8h5.6V57.1H25V79.4z M53.2,63.1    c0.4-0.4,0.9-0.6,1.5-0.6c0.5,0,1.1,0.2,1.5,0.6c0.4,0.4,0.6,0.9,0.6,1.5c0,0.5-0.2,1.1-0.6,1.5c-0.4,0.4-0.9,0.6-1.5,0.6    c-0.5,0-1.1-0.2-1.5-0.6c-0.4-0.4-0.6-0.9-0.6-1.5C52.6,64,52.9,63.4,53.2,63.1z M32.6,62.3h15c1.1,0,2.1,0.9,2.1,2.1    c0,1.1-0.9,2.1-2.1,2.1h-15c-1.1,0-2.1-0.9-2.1-2.1C30.5,63.2,31.4,62.3,32.6,62.3z"/>
	</g>
	<g>
		<path class="st11" d="M68.5,81.5c0,1.1-0.9,2-2.1,2h-6.7l-8.6,10.1c-0.4,0.5-1,0.8-1.6,0.8c-0.2,0-0.5,0-0.8-0.1    c-0.8-0.3-1.5-1.1-1.5-1.9v-8.8H22.9c-1.1,0-2.1-0.9-2.1-2V55.1c0-1.1,0.9-2.1,2.1-2.1h43.5c1.1,0,2.1,0.9,2.1,2.1V81.5z"/>
	</g>
	<g>
		<path class="st13" d="M54.7,66.6c0.5,0,1.1-0.2,1.5-0.6c0.4-0.4,0.6-0.9,0.6-1.5c0-0.5-0.2-1.1-0.6-1.5c-0.4-0.4-0.9-0.6-1.5-0.6    c-0.5,0-1.1,0.2-1.5,0.6c-0.4,0.4-0.6,0.9-0.6,1.5c0,0.5,0.2,1.1,0.6,1.5C53.6,66.4,54.2,66.6,54.7,66.6z"/>
	</g>
	<g>
		<path class="st13" d="M32.6,66.5h15c1.1,0,2.1-0.9,2.1-2.1c0-1.1-0.9-2.1-2.1-2.1h-15c-1.1,0-2.1,0.9-2.1,2.1    C30.5,65.5,31.4,66.5,32.6,66.5z"/>
	</g>
	<g>
		<path class="st13" d="M66.4,53H22.9c-1.1,0-2.1,0.9-2.1,2.1v26.5c0,1.1,0.9,2,2.1,2h24.4v8.8c0,0.9,0.7,1.6,1.5,1.9    c0.2,0.1,0.5,0.1,0.8,0.1c0.6,0,1.2-0.3,1.6-0.8l8.6-10.1h6.7c1.1,0,2.1-0.9,2.1-2V55.1C68.5,53.9,67.6,53,66.4,53z M64.4,79.4    h-5.6c-0.6,0-1.3,0.3-1.7,0.8l-5.7,6.6v-5.2c0-1.1-0.7-2.1-1.8-2.1H25V57.1h39.4V79.4z"/>
	</g>
</g>
<g>
	<g>
		<path class="st11" d="M291.4,69.4c-0.4,0-0.9-0.1-1.2-0.4l-18.5-13.7V73h39.4V55.3L292.6,69C292.2,69.3,291.8,69.4,291.4,69.4z"/>
	</g>
	<g>
		<polygon class="st11" points="306.9,53.3 275.9,53.3 291.4,64.8   "/>
	</g>
	<g>
		<path class="st13" d="M315.2,51.1c0-0.1,0-0.2,0-0.2c0-0.1,0-0.1,0-0.2c0-0.1,0-0.1-0.1-0.2c0-0.1,0-0.1-0.1-0.2    c0-0.1-0.1-0.1-0.1-0.2c0-0.1-0.1-0.1-0.1-0.2c0,0,0,0,0,0c0,0-0.1-0.1-0.1-0.1c0-0.1-0.1-0.1-0.1-0.2c-0.1,0-0.1-0.1-0.2-0.1    c-0.1,0-0.1-0.1-0.2-0.1c-0.1,0-0.1-0.1-0.2-0.1c-0.1,0-0.1-0.1-0.2-0.1c-0.1,0-0.1,0-0.2-0.1c-0.1,0-0.1,0-0.2,0    c-0.1,0-0.2,0-0.2,0c0,0-0.1,0-0.1,0h-43.5c0,0-0.1,0-0.1,0c-0.1,0-0.2,0-0.2,0c-0.1,0-0.1,0-0.2,0c-0.1,0-0.1,0-0.2,0.1    c-0.1,0-0.1,0.1-0.2,0.1c-0.1,0-0.1,0.1-0.2,0.1c-0.1,0-0.1,0.1-0.2,0.1c-0.1,0-0.1,0.1-0.2,0.1c-0.1,0.1-0.1,0.1-0.1,0.2    c0,0-0.1,0.1-0.1,0.1c0,0,0,0,0,0c0,0.1-0.1,0.1-0.1,0.2c0,0.1-0.1,0.1-0.1,0.2c0,0.1,0,0.1-0.1,0.2c0,0.1,0,0.1-0.1,0.2    c0,0.1,0,0.1,0,0.2c0,0.1,0,0.2,0,0.2c0,0,0,0,0,0V75c0,1.1,0.9,2.1,2.1,2.1h43.5c1.1,0,2.1-0.9,2.1-2.1L315.2,51.1    C315.2,51.2,315.2,51.2,315.2,51.1z M306.9,53.3l-15.5,11.5l-15.5-11.5H306.9z M311.1,73h-39.4V55.3L290.1,69    c0.4,0.3,0.8,0.4,1.2,0.4c0.4,0,0.9-0.1,1.2-0.4l18.5-13.7V73z"/>
	</g>
</g>
<g>
	<g>
		<rect x="280.5" y="101" class="st0" width="5.2" height="4.7"/>
	</g>
	<g>
		<rect x="272.2" y="101" class="st11" width="5.2" height="4.7"/>
	</g>
	<g>
		<rect x="288.8" y="101" class="st12" width="5.2" height="4.7"/>
	</g>
	<g>
		<rect x="297.1" y="101" class="st11" width="14.5" height="4.7"/>
	</g>
	<g>
		<rect x="272.2" y="109.3" class="st10" width="39.4" height="21.8"/>
	</g>
	<g>
		<path class="st13" d="M313.7,96.8h-43.5c-1.1,0-2.1,0.9-2.1,2.1v34.2c0,1.1,0.9,2.1,2.1,2.1h43.5c1.1,0,2.1-0.9,2.1-2.1V98.9    C315.7,97.8,314.8,96.8,313.7,96.8z M288.8,101h5.2v4.7h-5.2V101z M280.5,101h5.2v4.7h-5.2V101z M272.2,101h5.2v4.7h-5.2V101z     M311.6,131h-39.4v-21.8h39.4V131z M311.6,105.6h-14.5V101h14.5V105.6z"/>
	</g>
</g>
<g>
	<g>
		<path class="st10" d="M36.2,113.4l-2.3-3.7H23.9v24.9H63v-20.2H38C37.2,114.4,36.6,114,36.2,113.4z"/>
	</g>
	<g>
		<path class="st13" d="M65,110.2H39.1l-2.3-3.7c-0.4-0.6-1-1-1.8-1H21.8c-1.1,0-2.1,0.9-2.1,2.1v29c0,1.1,0.9,2.1,2.1,2.1H65    c1.1,0,2.1-0.9,2.1-2.1v-24.3C67.1,111.2,66.2,110.2,65,110.2z M63,134.6H23.9v-24.9h10.1l2.3,3.7c0.4,0.6,1,1,1.8,1h25V134.6z"/>
	</g>
</g>
<g>
	<g>
		<path class="st12" d="M23.7,182.1l12-9.7c0.8-0.6,1.9-0.6,2.7,0l13,11.3l5.6-4.6c0.8-0.6,1.9-0.6,2.7,0l3.5,2.9v-17.4H23.7V182.1z     M50.4,167.9c2.1,0,3.9,1.7,3.9,3.8c0,2.1-1.7,3.8-3.9,3.8c-2.1,0-3.9-1.7-3.9-3.8C46.6,169.6,48.3,167.9,50.4,167.9z"/>
	</g>
	<g>
		<path class="st11" d="M52.7,188.1c-0.8,0.7-1.9,0.6-2.7,0l-13-11.3l-13.3,10.7v5.2h39.4v-5.2l-4.8-4L52.7,188.1z"/>
	</g>
	<g>
		<path class="st13" d="M65.2,160.5H21.6c-1.1,0-2.1,0.9-2.1,2.1v32.1c0,1.1,0.9,2.1,2.1,2.1h43.5c1.1,0,2.1-0.9,2.1-2.1v-32.1    C67.2,161.4,66.3,160.5,65.2,160.5z M63.1,192.6H23.7v-5.2L37,176.7L50,188c0.8,0.7,1.9,0.7,2.7,0l5.6-4.7l4.8,4V192.6z M63.1,182    l-3.5-2.9c-0.8-0.6-1.9-0.6-2.7,0l-5.6,4.6l-13-11.3c-0.8-0.7-1.9-0.7-2.7,0l-12,9.7v-17.5h39.4V182z"/>
	</g>
	<g>
		<path class="st13" d="M50.4,175.5c2.1,0,3.9-1.7,3.9-3.8c0-2.1-1.7-3.8-3.9-3.8c-2.1,0-3.9,1.7-3.9,3.8    C46.6,173.8,48.3,175.5,50.4,175.5z"/>
	</g>
</g>
</svg>
